<?xml version="1.0" encoding="UTF-8" standalone="no"?>
<!-- Generator: Adobe Illustrator 26.5.0, SVG Export Plug-In . SVG Version: 6.00 Build 0)  -->

<svg
   version="1.1"
   id="Calque_1"
   x="0px"
   y="0px"
   viewBox="0 0 263.93771 81.085022"
   xml:space="preserve"
   sodipodi:docname="logo_IETR.svg"
   width="263.93771"
   height="81.085022"
   inkscape:version="1.3.2 (091e20e, 2023-11-25, custom)"
   xmlns:inkscape="http://www.inkscape.org/namespaces/inkscape"
   xmlns:sodipodi="http://sodipodi.sourceforge.net/DTD/sodipodi-0.dtd"
   xmlns="http://www.w3.org/2000/svg"
   xmlns:svg="http://www.w3.org/2000/svg"><defs
   id="defs6" /><sodipodi:namedview
   id="namedview6"
   pagecolor="#ffffff"
   bordercolor="#666666"
   borderopacity="1.0"
   inkscape:showpageshadow="2"
   inkscape:pageopacity="0.0"
   inkscape:pagecheckerboard="0"
   inkscape:deskcolor="#d1d1d1"
   inkscape:zoom="0.26225"
   inkscape:cx="-184.93804"
   inkscape:cy="366.06292"
   inkscape:window-width="1920"
   inkscape:window-height="991"
   inkscape:window-x="-9"
   inkscape:window-y="-9"
   inkscape:window-maximized="1"
   inkscape:current-layer="Calque_1" />
<style
   type="text/css"
   id="style1">
	.st0{fill:#020203;}
	.st1{fill:none;stroke:#E5362B;stroke-width:3.2784;stroke-linecap:round;stroke-miterlimit:10;}
</style>
<path
   class="st0"
   d="m 64.911848,6.6661 c 0,-3.7287 3.28512,-6.6661 7.18171,-6.6661 3.89659,0 7.18172,2.9374 7.18172,6.6661 v 67.7288 c 0,3.60882 -3.28513,6.66615 -7.18172,6.66615 -3.89659,0 -7.18171,-3.04534 -7.18171,-6.66615 z"
   id="path1"
   style="stroke-width:1.19895" />
<path
   class="st0"
   d="m 84.826418,6.7261 c 0,-3.7048 3.28513,-6.7141 7.18172,-6.7141 h 32.839272 c 3.64481,0 6.57025,2.7815 6.57025,6.2465 0,3.5849 -2.91345,6.3664 -6.57025,6.3664 H 99.189858 v 21.5212 h 25.657552 c 3.64481,0 6.57025,2.7816 6.57025,6.3664 0,3.465 -2.91345,6.2466 -6.57025,6.2466 H 99.189858 v 21.5211 h 25.657552 c 3.64481,0 6.57025,2.7816 6.57025,6.3665 0,3.46493 -2.91345,6.36639 -6.57025,6.36639 H 91.996148 c -3.89659,0 -7.18172,-3.12929 -7.18172,-6.82199 V 6.7261 Z"
   id="path2"
   style="stroke-width:1.19895" />
<path
   class="st0"
   d="m 159.72489,12.493 h -16.18584 c -3.77669,0 -6.69015,-2.7456 -6.69015,-6.2825 0,-3.429 2.92545,-6.1626 6.69015,-6.1626 h 46.72312 c 3.7767,0 6.69015,2.7456 6.69015,6.1626 0,3.5369 -2.92544,6.2825 -6.69015,6.2825 h -16.18584 v 61.794 c 0,3.6568 -3.28512,6.73808 -7.18171,6.73808 -3.89659,0 -7.18172,-3.08128 -7.18172,-6.73808 V 12.493 Z"
   id="path3"
   style="stroke-width:1.19895" />
<path
   class="st0"
   d="m 202.38356,6.6541 c 0,-3.6568 3.28513,-6.6302 7.18172,-6.6302 h 20.6819 c 15.93406,0 26.76059,10.7427 26.76059,24.003 0,10.9704 -7.30161,18.5238 -15.81416,20.4661 l -1.58262,0.1199 22.62421,25.3818 c 1.34282,1.4867 1.70251,2.8535 1.70251,4.4601 0,3.65683 -3.16523,6.63022 -7.04983,6.63022 -2.19409,0 -4.13639,-0.80329 -5.59911,-2.51779 L 222.82568,46.783 c -0.97115,-1.139 -2.19408,-2.9734 -2.19408,-5.2634 0,-3.429 2.91345,-6.0547 6.45035,-6.0547 h 2.67366 c 7.30162,0 12.40915,-5.1435 12.40915,-11.426 0,-6.4024 -5.10753,-11.5459 -12.40915,-11.5459 H 216.747 v 61.8419 c 0,3.65683 -3.28513,6.75012 -7.18172,6.75012 -3.89659,0 -7.18172,-3.0813 -7.18172,-6.75012 z"
   id="path4"
   style="stroke-width:1.19895" />
<path
   class="st1"
   d="m 48.558158,21.1375 c 0,-2.0862 0.16785,36.0764 -0.17985,55.1517 -0.06,3.51295 -11.72574,3.77672 -11.66579,0.1439 0.06,-3.5729 -0.012,-4.1604 0,-5.2634 0.55152,-43.9775 -0.25178,-47.6823 0,-66.302 0.048,-3.6928 -11.44998,-3.9086 -11.49794,-0.096 v 30.837"
   id="path5" />
<path
   class="st1"
   d="m 1.7990681,35.6208 c 0,2.0862 -0.35969,-11.7257 0,-30.801 0.0599,-3.513 11.6777799,-3.8607 11.6178299,-0.2278 -0.06,3.5728 0.012,4.1603 0,5.2633 -0.55151,43.9776 0.25178,47.6823 0,66.302 -0.048,3.6928 11.44999,3.90862 11.49794,0.096 V 45.4042"
   id="path6" />
<line
   class="st1"
   x1="1.7870845"
   y1="78.950897"
   x2="1.7870845"
   y2="45.104462"
   id="line6" />
</svg>
