<?xml version="1.0" encoding="UTF-8" standalone="no"?>
<!-- Created with Inkscape (http://www.inkscape.org/) -->

<svg
   version="1.1"
   id="svg2"
   xml:space="preserve"
   width="141.53004"
   height="72.505356"
   viewBox="0 0 141.53004 72.505356"
   sodipodi:docname="logo_CS.svg"
   inkscape:version="1.3.2 (091e20e, 2023-11-25, custom)"
   xmlns:inkscape="http://www.inkscape.org/namespaces/inkscape"
   xmlns:sodipodi="http://sodipodi.sourceforge.net/DTD/sodipodi-0.dtd"
   xmlns="http://www.w3.org/2000/svg"
   xmlns:svg="http://www.w3.org/2000/svg"
   xmlns:rdf="http://www.w3.org/1999/02/22-rdf-syntax-ns#"
   xmlns:cc="http://creativecommons.org/ns#"
   xmlns:dc="http://purl.org/dc/elements/1.1/"><metadata
     id="metadata8"><rdf:RDF><cc:Work
         rdf:about=""><dc:format>image/svg+xml</dc:format><dc:type
           rdf:resource="http://purl.org/dc/dcmitype/StillImage" /><dc:title /></cc:Work></rdf:RDF></metadata><defs
     id="defs6" /><sodipodi:namedview
     pagecolor="#ffffff"
     bordercolor="#666666"
     borderopacity="1"
     objecttolerance="10"
     gridtolerance="10"
     guidetolerance="10"
     inkscape:pageopacity="0"
     inkscape:pageshadow="2"
     inkscape:window-width="1920"
     inkscape:window-height="991"
     id="namedview4"
     showgrid="false"
     fit-margin-top="0"
     fit-margin-left="0"
     fit-margin-right="0"
     fit-margin-bottom="0"
     inkscape:zoom="1.5090743"
     inkscape:cx="167.32112"
     inkscape:cy="-64.940474"
     inkscape:window-x="-9"
     inkscape:window-y="-9"
     inkscape:window-maximized="1"
     inkscape:current-layer="g12"
     inkscape:showpageshadow="2"
     inkscape:pagecheckerboard="0"
     inkscape:deskcolor="#d1d1d1" /><g
     id="g10"
     inkscape:groupmode="layer"
     inkscape:label="ink_ext_XXXXXX"
     transform="matrix(1.3333333,0,0,-1.3333333,-49.045332,1299.9586)"><g
       id="g12"
       transform="scale(0.1)"><path
         d="m 985.60905,9518.5017 c -8.13299,17.0623 -29.5077,23.8339 -47.75606,15.0994 -18.23706,-8.7063 -31.46198,-31.9934 -23.31924,-49.0556 8.12177,-17.0482 34.50294,-21.4365 52.73865,-12.7161 18.23715,8.7204 26.44153,29.5961 18.33665,46.6723"
         style="fill:#b00b3a;fill-opacity:1;fill-rule:nonzero;stroke:none;stroke-width:1.40199"
         id="path58"
         inkscape:connector-curvature="0" /><path
         d="m 1065.0459,9556.2993 c -21.4295,44.8638 -66.14036,71.1651 -112.73411,71.1231 -18.03519,0.014 -36.41946,-3.9396 -53.67102,-12.1693 -17.24029,-8.2297 -31.84623,-19.9925 -43.18135,-33.9702 l 43.3734,-35.176 c 6.24307,7.6969 14.20083,14.1181 23.85064,18.7305 9.66534,4.5986 19.68826,6.7297 29.61143,6.7297 25.81067,-0.028 50.53761,-14.4686 62.35081,-39.2978 4.5999,-9.6738 6.7239,-19.684 6.7351,-29.6521 -0.026,-25.7826 -14.4684,-50.5138 -39.30476,-62.3326 -9.47467,-4.5003 -19.27738,-6.6314 -29.02541,-6.7295 v -55.8554 c 17.82634,0.098 35.99193,4.0518 53.05137,12.1834 44.8693,21.4364 71.1566,66.1599 71.1118,112.7481 0.016,18.0295 -3.9256,36.3956 -12.1679,53.6681"
         style="fill:#b00b3a;fill-opacity:1;fill-rule:nonzero;stroke:none;stroke-width:1.40199"
         id="path60"
         inkscape:connector-curvature="0" /><path
         d="m 839.5763,9643.391 c -8.13153,17.0623 -34.51844,21.4505 -52.7541,12.7302 -18.23715,-8.7064 -26.45276,-29.6241 -18.31985,-46.6724 8.13296,-17.0621 29.50773,-23.8338 47.74482,-15.1274 18.24693,8.7344 31.44525,32.0074 23.32913,49.0696"
         style="fill:#7d638e;fill-opacity:1;fill-rule:nonzero;stroke:none;stroke-width:1.40199"
         id="path62"
         inkscape:connector-curvature="0" /><path
         d="m 855.51411,9581.3109 c -6.24445,-7.711 -14.21196,-14.1461 -23.85067,-18.7447 -9.6555,-4.6125 -19.68814,-6.7575 -29.64508,-6.7575 -25.79382,0.042 -50.50394,14.4966 -62.3227,39.3118 -4.59994,9.6737 -6.73518,19.6839 -6.7464,29.6381 0.0436,25.8106 14.48539,50.5277 39.32164,62.3466 9.48446,4.5144 19.31527,6.6453 29.09133,6.7295 l -0.011,55.8553 c -17.85433,-0.07 -36.03541,-4.0377 -53.11161,-12.1833 -44.86373,-21.4225 -71.16788,-66.16 -71.13984,-112.7481 0,-18.0296 3.95922,-36.3957 12.1847,-53.6682 21.41401,-44.8217 66.10247,-71.109 112.65277,-71.109 0.0436,0 0.0547,0 0.0813,0 18.03521,-0.014 36.40827,3.9256 53.68641,12.1833 17.22345,8.2156 31.84624,19.9783 43.18274,33.9563 l -43.3734,35.1899"
         style="fill:#7d638e;fill-opacity:1;fill-rule:nonzero;stroke:none;stroke-width:1.40199"
         id="path64"
         inkscape:connector-curvature="0" /><path
         d="m 477.44204,9267.8818 c 0,9.3232 1.81838,22.7964 14.24984,22.7964 12.70483,0 14.512,-13.4732 14.512,-22.7964 z m 14.51201,27.2267 c -16.06261,0 -28.50528,-14.791 -28.50528,-32.0215 0,-17.2304 12.44267,-32.0074 28.50528,-32.0074 13.86709,0 21.00322,5.706 26.81869,14.2582 l -3.10542,2.075 c -4.91819,-6.6034 -10.76168,-11.917 -19.43019,-11.917 -11.14443,0 -18.79509,10.0944 -18.79509,27.9978 h 41.977 c 0,20.9737 -12.31087,31.6149 -27.46499,31.6149"
         style="fill:#231f20;fill-opacity:1;fill-rule:nonzero;stroke:none;stroke-width:1.40199"
         id="path66"
         inkscape:connector-curvature="0" /><path
         d="m 576.16743,9295.1085 c -8.93769,0 -15.15411,-4.935 -19.82554,-12.9685 h -0.25797 v 12.1693 l -20.34429,-0.7711 v -4.4022 c 6.87256,0 9.19986,-1.2898 9.19986,-5.4397 l -0.0715,-51.0466 h 12.24078 l 0.0168,35.3583 c 0,9.856 6.22624,21.8991 15.79904,21.8991 4.792,0 10.37753,-2.7199 10.37753,-13.9779 v -43.2795 h 12.1861 l -0.0168,38.7231 c 0,18.9268 -10.10415,23.7357 -19.30401,23.7357"
         style="fill:#231f20;fill-opacity:1;fill-rule:nonzero;stroke:none;stroke-width:1.40199"
         id="path68"
         inkscape:connector-curvature="0" /><path
         d="m 655.05606,9249.4877 c 0,-10.3747 -4.39244,-13.9919 -9.45782,-13.9919 -3.75174,0 -7.11932,1.2898 -7.11932,6.7436 v 46.8966 h 18.00156 v 4.4022 h -18.00156 v 20.2168 h -4.65461 c -3.38441,-15.8005 -4.9294,-19.1793 -16.99353,-20.2168 v -4.4022 h 9.47325 v -42.242 c 0,-12.8282 7.00014,-15.8144 16.07383,-15.8144 12.8156,0 16.32057,7.2623 16.32057,18.9268 v 2.1871 h -3.64237 v -2.7058"
         style="fill:#231f20;fill-opacity:1;fill-rule:nonzero;stroke:none;stroke-width:1.40199"
         id="path70"
         inkscape:connector-curvature="0" /><path
         d="m 711.02634,9295.1085 c -10.74486,0 -15.03354,-8.0615 -17.74359,-18.4222 h -0.25797 v 17.623 l -20.60786,-0.7711 v -4.4022 c 6.99874,0 9.32604,-1.2898 9.32604,-5.4397 v -51.0466 h 12.15806 c 0,0 0.028,6.7297 0.028,17.497 0,24.6189 6.47299,40.5315 15.15271,40.5315 0.78371,0 1.16646,-0.1262 1.6866,-0.2383 -1.82259,-1.1638 -2.71006,-2.9863 -2.71006,-5.0753 0,-3.6031 2.18992,-6.0705 6.33561,-6.0705 4.01528,0 6.87394,3.3507 6.87394,6.8557 0,3.8835 -3.1054,8.9587 -10.24153,8.9587"
         style="fill:#231f20;fill-opacity:1;fill-rule:nonzero;stroke:none;stroke-width:1.40199"
         id="path72"
         inkscape:connector-curvature="0" /><path
         d="m 772.57095,9255.1938 c 0,-11.0196 -7.13473,-18.6746 -15.29571,-18.6746 -6.08888,0 -9.06391,4.15 -9.06391,9.9822 0,11.2861 15.2803,17.7492 24.35962,19.9645 z m 16.1944,-16.5996 c -2.46469,0 -4.02514,0.7852 -4.02514,7.2624 v 31.3484 c 0,13.7536 -8.28015,17.9035 -25.13769,17.9035 -11.78511,0 -22.01548,-6.6315 -22.01548,-14.5107 0,-3.9115 3.0942,-7.5426 7.50347,-7.5426 4.40784,0 7.51888,3.6311 7.51888,7.5426 0,3.6032 -2.06933,6.1969 -5.5743,6.8558 3.90453,2.4535 7.65629,3.2246 12.18467,3.2246 4.92944,0 13.35119,-1.5422 13.35119,-8.0334 v -12.0291 c -11.02384,-3.7714 -38.36268,-9.7439 -38.36268,-24.619 0,-10.1083 9.07506,-14.9171 18.27493,-14.9171 9.58402,0 17.22345,2.846 20.85461,12.4356 h 0.2748 c 1.04028,-6.7296 2.84745,-11.6365 10.48689,-11.6365 9.20125,0 13.33578,7.3604 13.33578,15.8004 h -3.61437 c 0,-3.1124 -0.9043,-9.0849 -5.05556,-9.0849"
         style="fill:#231f20;fill-opacity:1;fill-rule:nonzero;stroke:none;stroke-width:1.40199"
         id="path74"
         inkscape:connector-curvature="0" /><path
         d="m 867.1899,9267.8818 c 0,9.3232 1.82397,22.7964 14.25543,22.7964 12.70485,0 14.52882,-13.4732 14.52882,-22.7964 z m 14.51201,27.2267 c -16.05698,0 -28.48845,-14.791 -28.48845,-32.0215 0,-17.2304 12.43147,-32.0074 28.48845,-32.0074 13.87268,0 20.99201,5.706 26.8243,14.2582 l -3.11099,2.075 c -4.91262,-6.6034 -10.74488,-11.917 -19.42464,-11.917 -11.1444,0 -18.80068,10.0944 -18.80068,27.9978 h 41.99383 c 0,20.9737 -12.31085,31.6149 -27.48182,31.6149"
         style="fill:#231f20;fill-opacity:1;fill-rule:nonzero;stroke:none;stroke-width:1.40199"
         id="path76"
         inkscape:connector-curvature="0" /><path
         d="m 1049.903,9293.5382 v -4.4022 c 7.7768,0 10.1041,-1.2898 10.1041,-5.4397 v -29.0212 c -1.1665,-8.5521 -5.8323,-18.4222 -16.4565,-18.4222 -6.8628,0 -9.7215,5.2014 -9.7215,12.4497 v 44.8356 h -21.3748 v -4.4022 c 6.8727,0 9.2013,-1.2898 9.2013,-5.4397 v -29.2876 c 0,-15.2957 7.6395,-23.3291 19.3097,-23.3291 8.9377,0 15.1541,4.9349 19.8199,12.9543 h 0.2622 v -11.3281 h 11.1444 l -0.015,60.8324 h -22.2735"
         style="fill:#231f20;fill-opacity:1;fill-rule:nonzero;stroke:none;stroke-width:1.40199"
         id="path78"
         inkscape:connector-curvature="0" /><path
         d="m 942.21747,9303.198 c 0,10.3607 7.39413,15.6742 17.24031,15.6742 15.03353,0 22.41077,-14.3704 25.79513,-27.1986 h 3.61442 v 30.0447 h -4.4093 c -0.3827,-1.2899 -2.06932,-5.9585 -3.99704,-5.9585 -3.12229,0 -9.33731,7.5147 -21.12945,7.5147 -13.86563,0 -27.73839,-9.0709 -27.73839,-24.605 0,-34.4609 51.83578,-17.2445 51.83578,-46.3918 0,-10.501 -9.48579,-16.9501 -20.87697,-16.9501 -17.73245,0 -25.756,10.0803 -28.64134,23.8619 h -3.88906 c 2.82074,-16.7398 13.06235,-28.166 33.10514,-28.166 v 0 c 17.15338,0.07 30.92655,10.9635 30.92655,28.895 0,31.8672 -51.83578,18.5203 -51.83578,43.2795"
         style="fill:#231f20;fill-opacity:1;fill-rule:nonzero;stroke:none;stroke-width:1.40199"
         id="path80"
         inkscape:connector-curvature="0" /><path
         d="m 1129.8333,9235.4958 c -4.2719,0 -14.7756,4.0096 -14.7756,23.7077 v 3.491 c 0,16.3332 5.9682,27.9837 15.8158,27.9837 11.1445,0 15.8103,-11.6505 15.8103,-27.9837 0,-19.1793 -4.6658,-27.1987 -16.8505,-27.1987 z m 2.7268,59.6127 c -10.3677,0 -15.0391,-6.2389 -18.2693,-13.4872 h -0.2579 v 11.9169 l -21.0019,-0.7711 v -4.4162 c 7.5189,0 9.8574,-1.3039 9.8574,-5.4257 v -77.0254 h 12.1959 l -0.026,35.6807 h 0.2622 c 3.8891,-7.3886 8.1596,-10.5009 17.3608,-10.5009 15.5537,0 27.2183,15.5621 27.2183,32.6664 0,16.1929 -12.1847,31.3625 -27.3388,31.3625"
         style="fill:#231f20;fill-opacity:1;fill-rule:nonzero;stroke:none;stroke-width:1.40199"
         id="path82"
         inkscape:connector-curvature="0" /><path
         d="m 1225.0537,9315.0588 c 2.3273,1.416 3.8765,3.491 3.8765,5.2855 0,2.4815 -1.287,4.2901 -4.3967,4.2901 -2.4646,0 -4.0265,-1.3039 -5.57,-2.9863 l -19.0475,-19.2914 h 5.1915 l 19.9462,12.7021"
         style="fill:#231f20;fill-opacity:1;fill-rule:nonzero;stroke:none;stroke-width:1.40199"
         id="path84"
         inkscape:connector-curvature="0" /><path
         d="m 1194.0837,9267.8818 c 0,9.3232 1.824,22.7964 14.2554,22.7964 12.7049,0 14.5121,-13.4732 14.5121,-22.7964 z m 14.512,27.2267 c -16.0724,0 -28.5052,-14.791 -28.5052,-32.0215 0,-17.2304 12.4328,-32.0074 28.5052,-32.0074 13.8559,0 20.992,5.706 26.8243,14.2582 l -3.111,2.075 c -4.928,-6.6034 -10.7448,-11.917 -19.4414,-11.917 -11.1276,0 -18.7839,10.0944 -18.7839,27.9978 h 41.977 c 0,20.9737 -12.294,31.6149 -27.465,31.6149"
         style="fill:#231f20;fill-opacity:1;fill-rule:nonzero;stroke:none;stroke-width:1.40199"
         id="path86"
         inkscape:connector-curvature="0" /><path
         d="m 1252.9014,9311.9604 c 7.5161,0 9.8434,-1.3039 9.8434,-5.4677 l -0.042,-73.843 h 12.2113 l 0.014,84.484 -22.0267,-0.7851 v -4.3882"
         style="fill:#231f20;fill-opacity:1;fill-rule:nonzero;stroke:none;stroke-width:1.40199"
         id="path88"
         inkscape:connector-curvature="0" /><path
         d="m 1426.0767,9247.4688 c -4.5424,-6.7436 -10.3747,-11.9169 -19.6979,-11.9169 -13.8657,0 -19.8242,12.8282 -19.8242,29.0212 0,16.4313 7.9493,26.1191 18.6325,26.1191 14.3844,0 7.2343,-15.6742 16.3332,-15.6742 3.7573,0 6.9819,2.7058 6.9819,6.4631 0,8.6644 -12.1553,13.6835 -22.1234,13.6835 -17.3566,0 -33.816,-13.4872 -33.816,-32.0216 0,-18.5202 13.6133,-32.0074 31.3625,-32.0074 12.0431,0 20.0765,5.7062 25.3901,14.791 l -3.2387,1.5422"
         style="fill:#231f20;fill-opacity:1;fill-rule:nonzero;stroke:none;stroke-width:1.40199"
         id="path90"
         inkscape:connector-curvature="0" /><path
         d="m 808.14227,9311.9604 c 7.51325,0 9.84617,-1.3039 9.84617,-5.4677 l 0.0376,-73.843 h 12.11462 l 0.0265,84.484 -22.02527,-0.7851 v -4.3882"
         style="fill:#231f20;fill-opacity:1;fill-rule:nonzero;stroke:none;stroke-width:1.40199"
         id="path92"
         inkscape:connector-curvature="0" /><path
         d="m 1311.3238,9267.8818 c 0,9.3232 1.8227,22.7964 14.2582,22.7964 12.6881,0 14.5107,-13.4732 14.5107,-22.7964 z m 14.5106,27.2267 c -16.0668,0 -28.5025,-14.791 -28.5025,-32.0215 0,-17.2304 12.4357,-32.0074 28.5025,-32.0074 13.8517,0 20.9878,5.706 26.8201,14.2582 l -3.0984,2.075 c -4.935,-6.6034 -10.7673,-11.917 -19.4457,-11.917 -11.1458,0 -18.7866,10.0944 -18.7866,27.9978 h 41.9756 c 0,20.9737 -12.3095,31.6149 -27.465,31.6149"
         style="fill:#231f20;fill-opacity:1;fill-rule:nonzero;stroke:none;stroke-width:1.40199"
         id="path94"
         inkscape:connector-curvature="0" /><path
         d="m 409.69644,9235.4958 c -11.27061,0 -26.8229,10.6272 -26.8229,41.7092 0,28.11 8.55916,41.7233 27.20704,41.7233 16.59397,0 22.673,-14.1181 26.69811,-28.4884 h 3.50498 v 30.5634 h -3.12223 c -0.76689,-2.3414 -2.96802,-4.9211 -5.31214,-4.9211 -2.20674,0 -11.52857,7.2483 -23.05574,7.2483 -23.57728,0 -40.95356,-22.1374 -40.95356,-46.1255 0,-23.96 17.37628,-46.1254 39.52913,-46.1254 21.52337,0 31.91212,10.9635 34.84228,28.166 h -3.90034 c -2.90212,-13.7115 -10.94113,-23.7498 -28.61463,-23.7498"
         style="fill:#231f20;fill-opacity:1;fill-rule:nonzero;stroke:none;stroke-width:1.40199"
         id="path96"
         inkscape:connector-curvature="0" /></g></g></svg>
