<?xml version="1.0" encoding="UTF-8" standalone="no"?>
<!-- Created with Inkscape (http://www.inkscape.org/) -->

<svg
   xmlns:dc="http://purl.org/dc/elements/1.1/"
   xmlns:cc="http://creativecommons.org/ns#"
   xmlns:rdf="http://www.w3.org/1999/02/22-rdf-syntax-ns#"
   xmlns:svg="http://www.w3.org/2000/svg"
   xmlns="http://www.w3.org/2000/svg"
   xmlns:sodipodi="http://sodipodi.sourceforge.net/DTD/sodipodi-0.dtd"
   xmlns:inkscape="http://www.inkscape.org/namespaces/inkscape"
   version="1.1"
   id="svg2"
   xml:space="preserve"
   width="914.4881"
   height="411.70227"
   viewBox="0 0 914.4881 411.70227"
   sodipodi:docname="emotion_classification_results_vs_data.svg"
   inkscape:version="0.92.3 (2405546, 2018-03-11)"><metadata
     id="metadata8"><rdf:RDF><cc:Work
         rdf:about=""><dc:format>image/svg+xml</dc:format><dc:type
           rdf:resource="http://purl.org/dc/dcmitype/StillImage" /><dc:title /></cc:Work></rdf:RDF></metadata><defs
     id="defs6"><clipPath
       clipPathUnits="userSpaceOnUse"
       id="clipPath22"><path
         d="M 43.344,18.156 H 686.723 V 291.558 H 43.344 Z"
         id="path20"
         inkscape:connector-curvature="0" /></clipPath><clipPath
       clipPathUnits="userSpaceOnUse"
       id="clipPath32"><path
         d="M 0,0 H 689 V 326 H 0 Z"
         id="path30"
         inkscape:connector-curvature="0" /></clipPath><clipPath
       clipPathUnits="userSpaceOnUse"
       id="clipPath50"><path
         d="M 43.344,18.156 H 686.723 V 291.558 H 43.344 Z"
         id="path48"
         inkscape:connector-curvature="0" /></clipPath><clipPath
       clipPathUnits="userSpaceOnUse"
       id="clipPath60"><path
         d="M 0,0 H 689 V 326 H 0 Z"
         id="path58"
         inkscape:connector-curvature="0" /></clipPath><clipPath
       clipPathUnits="userSpaceOnUse"
       id="clipPath80"><path
         d="M 43.344,18.156 H 686.723 V 291.558 H 43.344 Z"
         id="path78"
         inkscape:connector-curvature="0" /></clipPath><clipPath
       clipPathUnits="userSpaceOnUse"
       id="clipPath90"><path
         d="M 0,0 H 689 V 326 H 0 Z"
         id="path88"
         inkscape:connector-curvature="0" /></clipPath><clipPath
       clipPathUnits="userSpaceOnUse"
       id="clipPath110"><path
         d="M 43.344,18.156 H 686.723 V 291.558 H 43.344 Z"
         id="path108"
         inkscape:connector-curvature="0" /></clipPath><clipPath
       clipPathUnits="userSpaceOnUse"
       id="clipPath120"><path
         d="M 0,0 H 689 V 326 H 0 Z"
         id="path118"
         inkscape:connector-curvature="0" /></clipPath><clipPath
       clipPathUnits="userSpaceOnUse"
       id="clipPath140"><path
         d="M 43.344,18.156 H 686.723 V 291.558 H 43.344 Z"
         id="path138"
         inkscape:connector-curvature="0" /></clipPath><clipPath
       clipPathUnits="userSpaceOnUse"
       id="clipPath150"><path
         d="M 0,0 H 689 V 326 H 0 Z"
         id="path148"
         inkscape:connector-curvature="0" /></clipPath><clipPath
       clipPathUnits="userSpaceOnUse"
       id="clipPath170"><path
         d="M 43.344,18.156 H 686.723 V 291.558 H 43.344 Z"
         id="path168"
         inkscape:connector-curvature="0" /></clipPath><clipPath
       clipPathUnits="userSpaceOnUse"
       id="clipPath180"><path
         d="M 0,0 H 689 V 326 H 0 Z"
         id="path178"
         inkscape:connector-curvature="0" /></clipPath><clipPath
       clipPathUnits="userSpaceOnUse"
       id="clipPath238"><path
         d="M 43.344,18.156 H 686.723 V 291.558 H 43.344 Z"
         id="path236"
         inkscape:connector-curvature="0" /></clipPath><clipPath
       clipPathUnits="userSpaceOnUse"
       id="clipPath248"><path
         d="M 0,0 H 689 V 326 H 0 Z"
         id="path246"
         inkscape:connector-curvature="0" /></clipPath><clipPath
       clipPathUnits="userSpaceOnUse"
       id="clipPath270"><path
         d="M 43.344,18.156 H 686.723 V 291.558 H 43.344 Z"
         id="path268"
         inkscape:connector-curvature="0" /></clipPath><clipPath
       clipPathUnits="userSpaceOnUse"
       id="clipPath280"><path
         d="M 0,0 H 689 V 326 H 0 Z"
         id="path278"
         inkscape:connector-curvature="0" /></clipPath><clipPath
       clipPathUnits="userSpaceOnUse"
       id="clipPath302"><path
         d="M 43.344,18.156 H 686.723 V 291.558 H 43.344 Z"
         id="path300"
         inkscape:connector-curvature="0" /></clipPath><clipPath
       clipPathUnits="userSpaceOnUse"
       id="clipPath312"><path
         d="M 0,0 H 689 V 326 H 0 Z"
         id="path310"
         inkscape:connector-curvature="0" /></clipPath><clipPath
       clipPathUnits="userSpaceOnUse"
       id="clipPath334"><path
         d="M 43.344,18.156 H 686.723 V 291.558 H 43.344 Z"
         id="path332"
         inkscape:connector-curvature="0" /></clipPath><clipPath
       clipPathUnits="userSpaceOnUse"
       id="clipPath344"><path
         d="M 0,0 H 689 V 326 H 0 Z"
         id="path342"
         inkscape:connector-curvature="0" /></clipPath><clipPath
       clipPathUnits="userSpaceOnUse"
       id="clipPath366"><path
         d="M 43.344,18.156 H 686.723 V 291.558 H 43.344 Z"
         id="path364"
         inkscape:connector-curvature="0" /></clipPath><clipPath
       clipPathUnits="userSpaceOnUse"
       id="clipPath376"><path
         d="M 0,0 H 689 V 326 H 0 Z"
         id="path374"
         inkscape:connector-curvature="0" /></clipPath><clipPath
       clipPathUnits="userSpaceOnUse"
       id="clipPath420"><path
         d="M 43.344,18.156 H 686.723 V 291.558 H 43.344 Z"
         id="path418"
         inkscape:connector-curvature="0" /></clipPath><clipPath
       clipPathUnits="userSpaceOnUse"
       id="clipPath430"><path
         d="M 0,0 H 689 V 326 H 0 Z"
         id="path428"
         inkscape:connector-curvature="0" /></clipPath><clipPath
       clipPathUnits="userSpaceOnUse"
       id="clipPath446"><path
         d="M 0,0 H 689 V 326 H 0 Z"
         id="path444"
         inkscape:connector-curvature="0" /></clipPath><clipPath
       clipPathUnits="userSpaceOnUse"
       id="clipPath462"><path
         d="M 0,0 H 689 V 326 H 0 Z"
         id="path460"
         inkscape:connector-curvature="0" /></clipPath><clipPath
       clipPathUnits="userSpaceOnUse"
       id="clipPath536"><path
         d="M 0,0 H 689 V 326 H 0 Z"
         id="path534"
         inkscape:connector-curvature="0" /></clipPath><clipPath
       clipPathUnits="userSpaceOnUse"
       id="clipPath536-3"><path
         d="M 0,0 H 689 V 326 H 0 Z"
         id="path534-6"
         inkscape:connector-curvature="0" /></clipPath></defs><sodipodi:namedview
     pagecolor="#ffffff"
     bordercolor="#666666"
     borderopacity="1"
     objecttolerance="10"
     gridtolerance="10"
     guidetolerance="10"
     inkscape:pageopacity="0"
     inkscape:pageshadow="2"
     inkscape:window-width="1920"
     inkscape:window-height="1073"
     id="namedview4"
     showgrid="false"
     inkscape:zoom="1.49492"
     inkscape:cx="154.63814"
     inkscape:cy="233.43261"
     inkscape:window-x="1200"
     inkscape:window-y="35"
     inkscape:window-maximized="1"
     inkscape:current-layer="g10"
     fit-margin-top="0"
     fit-margin-left="0"
     fit-margin-right="0"
     fit-margin-bottom="0" /><g
     id="g10"
     inkscape:groupmode="layer"
     inkscape:label="emotion_classification_results_vs_data"
     transform="matrix(1.3333333,0,0,1.3333333,-3.1425421,-22.207999)"><g
   id="g12" /><g
   id="g16"><g
     id="g18"
     clip-path="url(#clipPath22)"><g
       id="g24"><g
         id="g26"><g
           id="g28"
           clip-path="url(#clipPath32)"><g
             id="g34"><g
               id="g36"><path
                 d="M 72.59,291.559 V 18.156"
                 style="fill:none;stroke:#cbcbcb;stroke-width:1;stroke-linecap:butt;stroke-linejoin:round;stroke-miterlimit:4;stroke-dasharray:none;stroke-opacity:1"
                 id="path38"
                 inkscape:connector-curvature="0" /></g></g></g></g></g></g></g><g
   id="g40"
   transform="translate(-4.5)"><path
     d="m 72.586,296.402 c -0.711,0 -1.246,0.348 -1.606,1.047 -0.355,0.699 -0.535,1.75 -0.535,3.156 0,1.399 0.18,2.446 0.535,3.149 0.36,0.699 0.895,1.047 1.606,1.047 0.715,0 1.25,-0.348 1.609,-1.047 0.36,-0.703 0.539,-1.75 0.539,-3.149 0,-1.406 -0.179,-2.457 -0.539,-3.156 -0.359,-0.699 -0.894,-1.047 -1.609,-1.047 z m 0,-1.093 c 1.144,0 2.019,0.449 2.621,1.355 0.606,0.906 0.906,2.219 0.906,3.941 0,1.719 -0.3,3.028 -0.906,3.934 -0.602,0.906 -1.477,1.356 -2.621,1.356 -1.145,0 -2.02,-0.45 -2.621,-1.356 -0.606,-0.906 -0.906,-2.215 -0.906,-3.934 0,-1.722 0.3,-3.035 0.906,-3.941 0.601,-0.906 1.476,-1.355 2.621,-1.355 z"
     style="fill:#000000;fill-opacity:1;fill-rule:nonzero;stroke:none"
     id="path42"
     inkscape:connector-curvature="0" /></g><g
   id="g44"><g
     id="g46"
     clip-path="url(#clipPath50)"><g
       id="g52"><g
         id="g54"><g
           id="g56"
           clip-path="url(#clipPath60)"><g
             id="g62"><g
               id="g64"><path
                 d="M 189.566,291.559 V 18.156"
                 style="fill:none;stroke:#cbcbcb;stroke-width:1;stroke-linecap:butt;stroke-linejoin:round;stroke-miterlimit:4;stroke-dasharray:none;stroke-opacity:1"
                 id="path66"
                 inkscape:connector-curvature="0" /></g></g></g></g></g></g></g><g
   id="g68"><path
     d="m 183.348,304.535 h 4.816 v 1.164 h -6.48 v -1.164 c 0.527,-0.543 1.238,-1.269 2.144,-2.183 0.906,-0.914 1.473,-1.504 1.707,-1.77 0.442,-0.496 0.75,-0.914 0.922,-1.258 0.18,-0.344 0.266,-0.683 0.266,-1.015 0,-0.543 -0.192,-0.985 -0.571,-1.329 -0.379,-0.339 -0.875,-0.511 -1.488,-0.511 -0.434,0 -0.891,0.074 -1.371,0.226 -0.48,0.149 -0.992,0.375 -1.539,0.684 v -1.395 c 0.555,-0.226 1.074,-0.394 1.559,-0.507 0.484,-0.114 0.925,-0.168 1.324,-0.168 1.058,0 1.902,0.261 2.531,0.793 0.629,0.527 0.941,1.234 0.941,2.117 0,0.418 -0.078,0.816 -0.234,1.195 -0.156,0.375 -0.441,0.816 -0.859,1.328 -0.114,0.133 -0.477,0.512 -1.086,1.145 -0.61,0.633 -1.473,1.515 -2.582,2.648 z"
     style="fill:#000000;fill-opacity:1;fill-rule:nonzero;stroke:none"
     id="path70"
     inkscape:connector-curvature="0" /><path
     d="m 194.016,296.402 c -0.711,0 -1.243,0.348 -1.602,1.047 -0.359,0.699 -0.539,1.75 -0.539,3.156 0,1.399 0.18,2.446 0.539,3.149 0.359,0.699 0.891,1.047 1.602,1.047 0.714,0 1.254,-0.348 1.609,-1.047 0.359,-0.703 0.539,-1.75 0.539,-3.149 0,-1.406 -0.18,-2.457 -0.539,-3.156 -0.355,-0.699 -0.895,-1.047 -1.609,-1.047 z m 0,-1.093 c 1.144,0 2.019,0.449 2.625,1.355 0.601,0.906 0.902,2.219 0.902,3.941 0,1.719 -0.301,3.028 -0.902,3.934 -0.606,0.906 -1.481,1.356 -2.625,1.356 -1.145,0 -2.016,-0.45 -2.621,-1.356 -0.602,-0.906 -0.907,-2.215 -0.907,-3.934 0,-1.722 0.305,-3.035 0.907,-3.941 0.605,-0.906 1.476,-1.355 2.621,-1.355 z"
     style="fill:#000000;fill-opacity:1;fill-rule:nonzero;stroke:none"
     id="path72"
     inkscape:connector-curvature="0" /></g><g
   id="g74"><g
     id="g76"
     clip-path="url(#clipPath80)"><g
       id="g82"><g
         id="g84"><g
           id="g86"
           clip-path="url(#clipPath90)"><g
             id="g92"><g
               id="g94"><path
                 d="M 306.547,291.559 V 18.156"
                 style="fill:none;stroke:#cbcbcb;stroke-width:1;stroke-linecap:butt;stroke-linejoin:round;stroke-miterlimit:4;stroke-dasharray:none;stroke-opacity:1"
                 id="path96"
                 inkscape:connector-curvature="0" /></g></g></g></g></g></g></g><g
   id="g98"><path
     d="m 302.93,296.695 -3.489,5.45 h 3.489 z m -0.364,-1.203 h 1.739 v 6.653 h 1.457 v 1.148 h -1.457 v 2.406 h -1.375 v -2.406 h -4.606 v -1.336 z"
     style="fill:#000000;fill-opacity:1;fill-rule:nonzero;stroke:none"
     id="path100"
     inkscape:connector-curvature="0" /><path
     d="m 310.996,296.402 c -0.711,0 -1.246,0.348 -1.605,1.047 -0.356,0.699 -0.536,1.75 -0.536,3.156 0,1.399 0.18,2.446 0.536,3.149 0.359,0.699 0.894,1.047 1.605,1.047 0.715,0 1.25,-0.348 1.609,-1.047 0.36,-0.703 0.536,-1.75 0.536,-3.149 0,-1.406 -0.176,-2.457 -0.536,-3.156 -0.359,-0.699 -0.894,-1.047 -1.609,-1.047 z m 0,-1.093 c 1.145,0 2.016,0.449 2.621,1.355 0.606,0.906 0.906,2.219 0.906,3.941 0,1.719 -0.3,3.028 -0.906,3.934 -0.605,0.906 -1.476,1.356 -2.621,1.356 -1.144,0 -2.019,-0.45 -2.621,-1.356 -0.605,-0.906 -0.906,-2.215 -0.906,-3.934 0,-1.722 0.301,-3.035 0.906,-3.941 0.602,-0.906 1.477,-1.355 2.621,-1.355 z"
     style="fill:#000000;fill-opacity:1;fill-rule:nonzero;stroke:none"
     id="path102"
     inkscape:connector-curvature="0" /></g><g
   id="g104"><g
     id="g106"
     clip-path="url(#clipPath110)"><g
       id="g112"><g
         id="g114"><g
           id="g116"
           clip-path="url(#clipPath120)"><g
             id="g122"><g
               id="g124"><path
                 d="M 423.523,291.559 V 18.156"
                 style="fill:none;stroke:#cbcbcb;stroke-width:1;stroke-linecap:butt;stroke-linejoin:round;stroke-miterlimit:4;stroke-dasharray:none;stroke-opacity:1"
                 id="path126"
                 inkscape:connector-curvature="0" /></g></g></g></g></g></g></g><g
   id="g128"><path
     d="m 419.238,300.043 c -0.621,0 -1.113,0.215 -1.472,0.637 -0.364,0.425 -0.543,1.004 -0.543,1.742 0,0.734 0.179,1.316 0.543,1.742 0.359,0.426 0.851,0.637 1.472,0.637 0.621,0 1.11,-0.211 1.473,-0.637 0.359,-0.426 0.543,-1.008 0.543,-1.742 0,-0.738 -0.184,-1.317 -0.543,-1.742 -0.363,-0.422 -0.852,-0.637 -1.473,-0.637 z m 2.742,-4.328 v 1.258 c -0.347,-0.164 -0.699,-0.289 -1.05,-0.375 -0.352,-0.086 -0.703,-0.129 -1.051,-0.129 -0.91,0 -1.609,0.308 -2.09,0.922 -0.48,0.617 -0.754,1.547 -0.82,2.789 0.265,-0.395 0.605,-0.7 1.008,-0.91 0.41,-0.211 0.855,-0.321 1.343,-0.321 1.024,0 1.836,0.313 2.43,0.938 0.594,0.621 0.891,1.465 0.891,2.535 0,1.051 -0.309,1.891 -0.93,2.523 -0.617,0.633 -1.441,0.95 -2.473,0.95 -1.179,0 -2.086,-0.45 -2.707,-1.356 -0.625,-0.906 -0.937,-2.215 -0.937,-3.934 0,-1.613 0.383,-2.898 1.148,-3.859 0.766,-0.961 1.793,-1.437 3.082,-1.437 0.348,0 0.699,0.031 1.051,0.101 0.352,0.067 0.719,0.172 1.105,0.305 z"
     style="fill:#000000;fill-opacity:1;fill-rule:nonzero;stroke:none"
     id="path130"
     inkscape:connector-curvature="0" /><path
     d="m 427.973,296.402 c -0.711,0 -1.246,0.348 -1.606,1.047 -0.355,0.699 -0.535,1.75 -0.535,3.156 0,1.399 0.18,2.446 0.535,3.149 0.36,0.699 0.895,1.047 1.606,1.047 0.715,0 1.254,-0.348 1.609,-1.047 0.359,-0.703 0.539,-1.75 0.539,-3.149 0,-1.406 -0.18,-2.457 -0.539,-3.156 -0.355,-0.699 -0.894,-1.047 -1.609,-1.047 z m 0,-1.093 c 1.144,0 2.019,0.449 2.621,1.355 0.605,0.906 0.906,2.219 0.906,3.941 0,1.719 -0.301,3.028 -0.906,3.934 -0.602,0.906 -1.477,1.356 -2.621,1.356 -1.145,0 -2.016,-0.45 -2.621,-1.356 -0.602,-0.906 -0.907,-2.215 -0.907,-3.934 0,-1.722 0.305,-3.035 0.907,-3.941 0.605,-0.906 1.476,-1.355 2.621,-1.355 z"
     style="fill:#000000;fill-opacity:1;fill-rule:nonzero;stroke:none"
     id="path132"
     inkscape:connector-curvature="0" /></g><g
   id="g134"><g
     id="g136"
     clip-path="url(#clipPath140)"><g
       id="g142"><g
         id="g144"><g
           id="g146"
           clip-path="url(#clipPath150)"><g
             id="g152"><g
               id="g154"><path
                 d="M 540.5,291.559 V 18.156"
                 style="fill:none;stroke:#cbcbcb;stroke-width:1;stroke-linecap:butt;stroke-linejoin:round;stroke-miterlimit:4;stroke-dasharray:none;stroke-opacity:1"
                 id="path156"
                 inkscape:connector-curvature="0" /></g></g></g></g></g></g></g><g
   id="g158"><path
     d="m 536.043,300.852 c -0.656,0 -1.172,0.175 -1.547,0.527 -0.375,0.348 -0.562,0.832 -0.562,1.445 0,0.617 0.187,1.102 0.562,1.453 0.375,0.348 0.891,0.524 1.547,0.524 0.656,0 1.172,-0.176 1.551,-0.528 0.379,-0.355 0.57,-0.835 0.57,-1.449 0,-0.613 -0.187,-1.097 -0.566,-1.445 -0.375,-0.352 -0.891,-0.527 -1.555,-0.527 z m -1.379,-0.59 c -0.594,-0.145 -1.055,-0.418 -1.387,-0.824 -0.328,-0.407 -0.492,-0.903 -0.492,-1.485 0,-0.816 0.289,-1.461 0.871,-1.933 0.582,-0.477 1.375,-0.711 2.387,-0.711 1.016,0 1.816,0.234 2.395,0.711 0.578,0.472 0.867,1.117 0.867,1.933 0,0.582 -0.164,1.078 -0.496,1.485 -0.329,0.406 -0.789,0.679 -1.375,0.824 0.664,0.156 1.183,0.461 1.55,0.91 0.375,0.453 0.559,1.004 0.559,1.652 0,0.992 -0.301,1.75 -0.906,2.281 -0.602,0.528 -1.469,0.79 -2.594,0.79 -1.125,0 -1.988,-0.262 -2.594,-0.79 -0.605,-0.531 -0.906,-1.289 -0.906,-2.281 0,-0.648 0.187,-1.199 0.562,-1.652 0.372,-0.449 0.895,-0.754 1.559,-0.91 z m -0.508,-2.18 c 0,0.527 0.168,0.941 0.496,1.238 0.332,0.293 0.793,0.442 1.391,0.442 0.594,0 1.059,-0.149 1.391,-0.442 0.336,-0.297 0.504,-0.711 0.504,-1.238 0,-0.527 -0.168,-0.941 -0.504,-1.238 -0.332,-0.297 -0.797,-0.442 -1.391,-0.442 -0.598,0 -1.059,0.145 -1.391,0.442 -0.328,0.297 -0.496,0.711 -0.496,1.238 z"
     style="fill:#000000;fill-opacity:1;fill-rule:nonzero;stroke:none"
     id="path160"
     inkscape:connector-curvature="0" /><path
     d="m 544.949,296.402 c -0.707,0 -1.242,0.348 -1.601,1.047 -0.36,0.699 -0.535,1.75 -0.535,3.156 0,1.399 0.175,2.446 0.535,3.149 0.359,0.699 0.894,1.047 1.601,1.047 0.719,0 1.254,-0.348 1.614,-1.047 0.355,-0.703 0.535,-1.75 0.535,-3.149 0,-1.406 -0.18,-2.457 -0.535,-3.156 -0.36,-0.699 -0.895,-1.047 -1.614,-1.047 z m 0,-1.093 c 1.145,0 2.02,0.449 2.625,1.355 0.602,0.906 0.906,2.219 0.906,3.941 0,1.719 -0.304,3.028 -0.906,3.934 -0.605,0.906 -1.48,1.356 -2.625,1.356 -1.14,0 -2.015,-0.45 -2.617,-1.356 -0.605,-0.906 -0.906,-2.215 -0.906,-3.934 0,-1.722 0.301,-3.035 0.906,-3.941 0.602,-0.906 1.477,-1.355 2.617,-1.355 z"
     style="fill:#000000;fill-opacity:1;fill-rule:nonzero;stroke:none"
     id="path162"
     inkscape:connector-curvature="0" /></g><g
   id="g164"><g
     id="g166"
     clip-path="url(#clipPath170)"><g
       id="g172"><g
         id="g174"><g
           id="g176"
           clip-path="url(#clipPath180)"><g
             id="g182"><g
               id="g184"><path
                 d="M 657.48,291.559 V 18.156"
                 style="fill:none;stroke:#cbcbcb;stroke-width:1;stroke-linecap:butt;stroke-linejoin:round;stroke-miterlimit:4;stroke-dasharray:none;stroke-opacity:1"
                 id="path186"
                 inkscape:connector-curvature="0" /></g></g></g></g></g></g></g><g
   id="g188"><path
     d="m 645.855,304.535 h 2.254 v -7.785 l -2.453,0.492 v -1.258 l 2.442,-0.492 h 1.379 v 9.043 h 2.257 v 1.164 h -5.879 z"
     style="fill:#000000;fill-opacity:1;fill-rule:nonzero;stroke:none"
     id="path190"
     inkscape:connector-curvature="0" /><path
     d="m 657.477,296.402 c -0.711,0 -1.247,0.348 -1.606,1.047 -0.355,0.699 -0.535,1.75 -0.535,3.156 0,1.399 0.18,2.446 0.535,3.149 0.359,0.699 0.895,1.047 1.606,1.047 0.714,0 1.25,-0.348 1.609,-1.047 0.359,-0.703 0.539,-1.75 0.539,-3.149 0,-1.406 -0.18,-2.457 -0.539,-3.156 -0.359,-0.699 -0.895,-1.047 -1.609,-1.047 z m 0,-1.093 c 1.144,0 2.019,0.449 2.621,1.355 0.605,0.906 0.906,2.219 0.906,3.941 0,1.719 -0.301,3.028 -0.906,3.934 -0.602,0.906 -1.477,1.356 -2.621,1.356 -1.145,0 -2.02,-0.45 -2.622,-1.356 -0.605,-0.906 -0.906,-2.215 -0.906,-3.934 0,-1.722 0.301,-3.035 0.906,-3.941 0.602,-0.906 1.477,-1.355 2.622,-1.355 z"
     style="fill:#000000;fill-opacity:1;fill-rule:nonzero;stroke:none"
     id="path192"
     inkscape:connector-curvature="0" /><path
     d="m 666.383,296.402 c -0.711,0 -1.246,0.348 -1.606,1.047 -0.355,0.699 -0.535,1.75 -0.535,3.156 0,1.399 0.18,2.446 0.535,3.149 0.36,0.699 0.895,1.047 1.606,1.047 0.715,0 1.254,-0.348 1.609,-1.047 0.36,-0.703 0.539,-1.75 0.539,-3.149 0,-1.406 -0.179,-2.457 -0.539,-3.156 -0.355,-0.699 -0.894,-1.047 -1.609,-1.047 z m 0,-1.093 c 1.144,0 2.019,0.449 2.621,1.355 0.605,0.906 0.906,2.219 0.906,3.941 0,1.719 -0.301,3.028 -0.906,3.934 -0.602,0.906 -1.477,1.356 -2.621,1.356 -1.145,0 -2.016,-0.45 -2.621,-1.356 -0.606,-0.906 -0.907,-2.215 -0.907,-3.934 0,-1.722 0.301,-3.035 0.907,-3.941 0.605,-0.906 1.476,-1.355 2.621,-1.355 z"
     style="fill:#000000;fill-opacity:1;fill-rule:nonzero;stroke:none"
     id="path194"
     inkscape:connector-curvature="0" /></g><g
   id="g232"><g
     id="g234"
     clip-path="url(#clipPath238)"><g
       id="g240"><g
         id="g242"><g
           id="g244"
           clip-path="url(#clipPath248)"><g
             id="g250"><g
               id="g252"><path
                 d="M 43.344,265.18 H 686.723"
                 style="fill:none;stroke:#cbcbcb;stroke-width:1;stroke-linecap:butt;stroke-linejoin:round;stroke-miterlimit:4;stroke-dasharray:none;stroke-opacity:1"
                 id="path254"
                 inkscape:connector-curvature="0" /></g></g></g></g></g></g></g><g
   id="g256"><path
     d="m 22.031,261.199 c -0.711,0 -1.246,0.352 -1.605,1.051 -0.356,0.699 -0.535,1.75 -0.535,3.156 0,1.399 0.179,2.446 0.535,3.145 0.359,0.703 0.894,1.051 1.605,1.051 0.715,0 1.25,-0.348 1.61,-1.051 0.359,-0.699 0.535,-1.746 0.535,-3.145 0,-1.406 -0.176,-2.457 -0.535,-3.156 -0.36,-0.699 -0.895,-1.051 -1.61,-1.051 z m 0,-1.094 c 1.145,0 2.016,0.454 2.621,1.36 0.606,0.902 0.907,2.219 0.907,3.941 0,1.715 -0.301,3.028 -0.907,3.934 -0.605,0.902 -1.476,1.355 -2.621,1.355 -1.144,0 -2.019,-0.453 -2.621,-1.355 -0.605,-0.906 -0.906,-2.219 -0.906,-3.934 0,-1.722 0.301,-3.039 0.906,-3.941 0.602,-0.906 1.477,-1.36 2.621,-1.36 z"
     style="fill:#000000;fill-opacity:1;fill-rule:nonzero;stroke:none"
     id="path258"
     inkscape:connector-curvature="0" /><path
     d="m 27.984,268.762 h 1.441 v 1.734 h -1.441 z"
     style="fill:#000000;fill-opacity:1;fill-rule:nonzero;stroke:none"
     id="path260"
     inkscape:connector-curvature="0" /><path
     d="m 33.625,269.336 h 4.816 v 1.16 h -6.476 v -1.16 c 0.523,-0.543 1.234,-1.27 2.14,-2.184 0.907,-0.914 1.473,-1.504 1.708,-1.769 0.441,-0.496 0.75,-0.918 0.925,-1.262 0.176,-0.344 0.262,-0.68 0.262,-1.012 0,-0.543 -0.187,-0.984 -0.57,-1.328 -0.379,-0.343 -0.875,-0.511 -1.489,-0.511 -0.433,0 -0.89,0.074 -1.371,0.222 -0.48,0.153 -0.992,0.379 -1.539,0.688 v -1.399 c 0.555,-0.222 1.074,-0.39 1.559,-0.504 0.484,-0.113 0.926,-0.172 1.328,-0.172 1.055,0 1.898,0.266 2.527,0.793 0.629,0.532 0.942,1.235 0.942,2.122 0,0.418 -0.078,0.816 -0.235,1.191 -0.156,0.375 -0.441,0.82 -0.859,1.328 -0.113,0.133 -0.477,0.516 -1.086,1.149 -0.609,0.628 -1.469,1.511 -2.582,2.648 z"
     style="fill:#000000;fill-opacity:1;fill-rule:nonzero;stroke:none"
     id="path262"
     inkscape:connector-curvature="0" /></g><g
   id="g264"><g
     id="g266"
     clip-path="url(#clipPath270)"><g
       id="g272"><g
         id="g274"><g
           id="g276"
           clip-path="url(#clipPath280)"><g
             id="g282"><g
               id="g284"><path
                 d="M 43.344,205.23 H 686.723"
                 style="fill:none;stroke:#cbcbcb;stroke-width:1;stroke-linecap:butt;stroke-linejoin:round;stroke-miterlimit:4;stroke-dasharray:none;stroke-opacity:1"
                 id="path286"
                 inkscape:connector-curvature="0" /></g></g></g></g></g></g></g><g
   id="g288"><path
     d="m 22.031,201.254 c -0.711,0 -1.246,0.351 -1.605,1.051 -0.356,0.699 -0.535,1.75 -0.535,3.152 0,1.398 0.179,2.449 0.535,3.148 0.359,0.7 0.894,1.051 1.605,1.051 0.715,0 1.25,-0.351 1.61,-1.051 0.359,-0.699 0.535,-1.75 0.535,-3.148 0,-1.402 -0.176,-2.453 -0.535,-3.152 -0.36,-0.7 -0.895,-1.051 -1.61,-1.051 z m 0,-1.094 c 1.145,0 2.016,0.453 2.621,1.36 0.606,0.902 0.907,2.214 0.907,3.937 0,1.719 -0.301,3.031 -0.907,3.938 -0.605,0.902 -1.476,1.355 -2.621,1.355 -1.144,0 -2.019,-0.453 -2.621,-1.355 -0.605,-0.907 -0.906,-2.219 -0.906,-3.938 0,-1.723 0.301,-3.035 0.906,-3.937 0.602,-0.907 1.477,-1.36 2.621,-1.36 z"
     style="fill:#000000;fill-opacity:1;fill-rule:nonzero;stroke:none"
     id="path290"
     inkscape:connector-curvature="0" /><path
     d="m 27.984,208.813 h 1.441 v 1.738 h -1.441 z"
     style="fill:#000000;fill-opacity:1;fill-rule:nonzero;stroke:none"
     id="path292"
     inkscape:connector-curvature="0" /><path
     d="m 36.23,201.547 -3.488,5.449 h 3.488 z m -0.363,-1.203 h 1.735 v 6.652 h 1.457 v 1.149 h -1.457 v 2.406 H 36.23 v -2.406 h -4.609 v -1.332 z"
     style="fill:#000000;fill-opacity:1;fill-rule:nonzero;stroke:none"
     id="path294"
     inkscape:connector-curvature="0" /></g><g
   id="g296"><g
     id="g298"
     clip-path="url(#clipPath302)"><g
       id="g304"><g
         id="g306"><g
           id="g308"
           clip-path="url(#clipPath312)"><g
             id="g314"><g
               id="g316"><path
                 d="M 43.344,145.285 H 686.723"
                 style="fill:none;stroke:#cbcbcb;stroke-width:1;stroke-linecap:butt;stroke-linejoin:round;stroke-miterlimit:4;stroke-dasharray:none;stroke-opacity:1"
                 id="path318"
                 inkscape:connector-curvature="0" /></g></g></g></g></g></g></g><g
   id="g320"><path
     d="m 22.031,141.309 c -0.711,0 -1.246,0.347 -1.605,1.046 -0.356,0.7 -0.535,1.75 -0.535,3.157 0,1.398 0.179,2.449 0.535,3.148 0.359,0.699 0.894,1.051 1.605,1.051 0.715,0 1.25,-0.352 1.61,-1.051 0.359,-0.699 0.535,-1.75 0.535,-3.148 0,-1.407 -0.176,-2.457 -0.535,-3.157 -0.36,-0.699 -0.895,-1.046 -1.61,-1.046 z m 0,-1.094 c 1.145,0 2.016,0.453 2.621,1.355 0.606,0.907 0.907,2.219 0.907,3.942 0,1.718 -0.301,3.031 -0.907,3.933 -0.605,0.907 -1.476,1.36 -2.621,1.36 -1.144,0 -2.019,-0.453 -2.621,-1.36 -0.605,-0.902 -0.906,-2.215 -0.906,-3.933 0,-1.723 0.301,-3.035 0.906,-3.942 0.602,-0.902 1.477,-1.355 2.621,-1.355 z"
     style="fill:#000000;fill-opacity:1;fill-rule:nonzero;stroke:none"
     id="path322"
     inkscape:connector-curvature="0" /><path
     d="m 27.984,148.867 h 1.441 v 1.738 h -1.441 z"
     style="fill:#000000;fill-opacity:1;fill-rule:nonzero;stroke:none"
     id="path324"
     inkscape:connector-curvature="0" /><path
     d="m 35.559,144.953 c -0.618,0 -1.11,0.211 -1.473,0.637 -0.363,0.422 -0.543,1 -0.543,1.738 0,0.735 0.18,1.317 0.543,1.742 0.363,0.426 0.855,0.641 1.473,0.641 0.621,0 1.113,-0.215 1.472,-0.641 0.364,-0.425 0.543,-1.007 0.543,-1.742 0,-0.738 -0.179,-1.316 -0.543,-1.738 -0.359,-0.426 -0.851,-0.637 -1.472,-0.637 z m 2.742,-4.332 v 1.258 c -0.348,-0.16 -0.699,-0.285 -1.051,-0.371 -0.352,-0.09 -0.703,-0.133 -1.051,-0.133 -0.91,0 -1.605,0.309 -2.086,0.922 -0.48,0.617 -0.754,1.547 -0.824,2.789 0.27,-0.395 0.606,-0.699 1.012,-0.91 0.406,-0.211 0.851,-0.317 1.34,-0.317 1.023,0 1.836,0.309 2.429,0.934 0.594,0.621 0.895,1.465 0.895,2.535 0,1.051 -0.313,1.891 -0.93,2.527 -0.621,0.633 -1.445,0.95 -2.476,0.95 -1.18,0 -2.082,-0.453 -2.707,-1.36 -0.625,-0.902 -0.938,-2.215 -0.938,-3.933 0,-1.614 0.383,-2.899 1.149,-3.86 0.765,-0.961 1.792,-1.437 3.082,-1.437 0.347,0 0.699,0.031 1.05,0.101 0.352,0.067 0.723,0.172 1.106,0.305 z"
     style="fill:#000000;fill-opacity:1;fill-rule:nonzero;stroke:none"
     id="path326"
     inkscape:connector-curvature="0" /></g><g
   id="g328"><g
     id="g330"
     clip-path="url(#clipPath334)"><g
       id="g336"><g
         id="g338"><g
           id="g340"
           clip-path="url(#clipPath344)"><g
             id="g346"><g
               id="g348"><path
                 d="M 43.344,85.34 H 686.723"
                 style="fill:none;stroke:#cbcbcb;stroke-width:1;stroke-linecap:butt;stroke-linejoin:round;stroke-miterlimit:4;stroke-dasharray:none;stroke-opacity:1"
                 id="path350"
                 inkscape:connector-curvature="0" /></g></g></g></g></g></g></g><g
   id="g352"><path
     d="m 22.031,81.359 c -0.711,0 -1.246,0.352 -1.605,1.051 -0.356,0.699 -0.535,1.75 -0.535,3.156 0,1.399 0.179,2.446 0.535,3.145 0.359,0.703 0.894,1.051 1.605,1.051 0.715,0 1.25,-0.348 1.61,-1.051 0.359,-0.699 0.535,-1.746 0.535,-3.145 0,-1.406 -0.176,-2.457 -0.535,-3.156 -0.36,-0.699 -0.895,-1.051 -1.61,-1.051 z m 0,-1.093 c 1.145,0 2.016,0.453 2.621,1.359 0.606,0.906 0.907,2.219 0.907,3.941 0,1.715 -0.301,3.028 -0.907,3.934 -0.605,0.906 -1.476,1.355 -2.621,1.355 -1.144,0 -2.019,-0.449 -2.621,-1.355 -0.605,-0.906 -0.906,-2.219 -0.906,-3.934 0,-1.722 0.301,-3.035 0.906,-3.941 0.602,-0.906 1.477,-1.359 2.621,-1.359 z"
     style="fill:#000000;fill-opacity:1;fill-rule:nonzero;stroke:none"
     id="path354"
     inkscape:connector-curvature="0" /><path
     d="m 27.984,88.922 h 1.441 v 1.734 h -1.441 z"
     style="fill:#000000;fill-opacity:1;fill-rule:nonzero;stroke:none"
     id="path356"
     inkscape:connector-curvature="0" /><path
     d="m 35.387,85.809 c -0.657,0 -1.172,0.175 -1.547,0.527 -0.375,0.352 -0.563,0.836 -0.563,1.449 0,0.617 0.188,1.098 0.563,1.449 0.375,0.352 0.89,0.528 1.547,0.528 0.656,0 1.172,-0.176 1.551,-0.528 0.378,-0.355 0.57,-0.839 0.57,-1.449 0,-0.613 -0.188,-1.097 -0.567,-1.449 -0.375,-0.352 -0.89,-0.527 -1.554,-0.527 z m -1.379,-0.586 c -0.594,-0.145 -1.055,-0.422 -1.387,-0.825 -0.328,-0.41 -0.492,-0.902 -0.492,-1.488 0,-0.812 0.289,-1.457 0.871,-1.933 0.578,-0.473 1.375,-0.711 2.387,-0.711 1.015,0 1.812,0.238 2.394,0.711 0.578,0.476 0.867,1.121 0.867,1.933 0,0.586 -0.164,1.078 -0.496,1.488 -0.332,0.403 -0.789,0.68 -1.375,0.825 0.664,0.156 1.18,0.457 1.551,0.91 0.371,0.453 0.559,1.004 0.559,1.652 0,0.992 -0.301,1.75 -0.907,2.281 -0.601,0.528 -1.468,0.789 -2.593,0.789 -1.125,0 -1.989,-0.261 -2.594,-0.789 -0.605,-0.531 -0.906,-1.289 -0.906,-2.281 0,-0.648 0.187,-1.199 0.558,-1.652 0.375,-0.453 0.895,-0.754 1.563,-0.91 z M 33.5,83.043 c 0,0.527 0.164,0.941 0.496,1.234 0.332,0.297 0.793,0.446 1.391,0.446 0.593,0 1.058,-0.149 1.39,-0.446 0.336,-0.293 0.504,-0.707 0.504,-1.234 0,-0.531 -0.168,-0.941 -0.504,-1.238 -0.332,-0.297 -0.797,-0.446 -1.39,-0.446 -0.598,0 -1.059,0.149 -1.391,0.446 -0.332,0.297 -0.496,0.707 -0.496,1.238 z"
     style="fill:#000000;fill-opacity:1;fill-rule:nonzero;stroke:none"
     id="path358"
     inkscape:connector-curvature="0" /></g><g
   id="g360"><g
     id="g362"
     clip-path="url(#clipPath366)"><g
       id="g368"><g
         id="g370"><g
           id="g372"
           clip-path="url(#clipPath376)"><g
             id="g378"><g
               id="g380"><path
                 d="M 43.344,25.391 H 686.723"
                 style="fill:none;stroke:#cbcbcb;stroke-width:1;stroke-linecap:butt;stroke-linejoin:round;stroke-miterlimit:4;stroke-dasharray:none;stroke-opacity:1"
                 id="path382"
                 inkscape:connector-curvature="0" /></g></g></g></g></g></g></g><g
   id="g384"><path
     d="m 19.316,29.551 h 2.254 v -7.789 l -2.453,0.492 v -1.258 l 2.442,-0.492 h 1.379 v 9.047 h 2.257 v 1.16 h -5.879 z"
     style="fill:#000000;fill-opacity:1;fill-rule:nonzero;stroke:none"
     id="path386"
     inkscape:connector-curvature="0" /><path
     d="m 27.984,28.973 h 1.441 v 1.738 h -1.441 z"
     style="fill:#000000;fill-opacity:1;fill-rule:nonzero;stroke:none"
     id="path388"
     inkscape:connector-curvature="0" /><path
     d="m 35.387,21.414 c -0.711,0 -1.246,0.352 -1.602,1.051 -0.359,0.699 -0.539,1.75 -0.539,3.152 0,1.399 0.18,2.449 0.539,3.149 0.356,0.699 0.891,1.05 1.602,1.05 0.715,0 1.254,-0.351 1.609,-1.05 0.359,-0.7 0.539,-1.75 0.539,-3.149 0,-1.402 -0.18,-2.453 -0.539,-3.152 -0.355,-0.699 -0.894,-1.051 -1.609,-1.051 z m 0,-1.094 c 1.144,0 2.019,0.453 2.621,1.36 0.605,0.902 0.906,2.215 0.906,3.937 0,1.719 -0.301,3.031 -0.906,3.938 -0.602,0.902 -1.477,1.355 -2.621,1.355 -1.145,0 -2.016,-0.453 -2.621,-1.355 -0.602,-0.907 -0.907,-2.219 -0.907,-3.938 0,-1.722 0.305,-3.035 0.907,-3.937 0.605,-0.907 1.476,-1.36 2.621,-1.36 z"
     style="fill:#000000;fill-opacity:1;fill-rule:nonzero;stroke:none"
     id="path390"
     inkscape:connector-curvature="0" /></g><g
   id="g414"
   style="stroke:#000000;stroke-opacity:1"><g
     id="g416"
     clip-path="url(#clipPath420)"
     style="stroke:#000000;stroke-opacity:1"><g
       id="g422"
       style="stroke:#800000;stroke-opacity:1"><g
         id="g424"
         style="stroke:#800000;stroke-width:2.25;stroke-miterlimit:4;stroke-dasharray:none;stroke-opacity:1"><g
           id="g426"
           clip-path="url(#clipPath430)"
           style="stroke:#800000;stroke-width:2.25;stroke-miterlimit:4;stroke-dasharray:none;stroke-opacity:1"><g
             id="g432"
             style="stroke:#800000;stroke-width:2.25;stroke-miterlimit:4;stroke-dasharray:none;stroke-opacity:1"><g
               id="g434"
               style="stroke:#800000;stroke-width:2.25;stroke-miterlimit:4;stroke-dasharray:none;stroke-opacity:1"><path
                 d="m 72.59,274.648 5.848,-104.773 23.394,-86.215 11.699,-11.418 17.547,-12.562 29.246,-10.422 29.242,-4.238 58.489,-4.165 116.98,-5.652 58.488,-1.336 58.489,-0.914 116.98,-1.488 58.488,-0.879"
                 style="fill:none;stroke:#800000;stroke-width:2.25;stroke-linecap:butt;stroke-linejoin:round;stroke-miterlimit:4;stroke-dasharray:none;stroke-opacity:1"
                 id="path436"
                 inkscape:connector-curvature="0" /></g></g></g></g></g><g
       id="g438"
       style="stroke:#000000;stroke-opacity:1"><g
         id="g440"
         style="stroke:#800080;stroke-width:2.25;stroke-miterlimit:4;stroke-dasharray:2.25000006, 2.25000006;stroke-dashoffset:0;stroke-opacity:1"><g
           id="g442"
           clip-path="url(#clipPath446)"
           style="stroke:#800080;stroke-width:2.25;stroke-miterlimit:4;stroke-dasharray:2.25000006, 2.25000006;stroke-dashoffset:0;stroke-opacity:1"><g
             id="g448"
             style="stroke:#800080;stroke-width:2.25;stroke-miterlimit:4;stroke-dasharray:2.25000006, 2.25000006;stroke-dashoffset:0;stroke-opacity:1"><g
               id="g450"
               style="stroke:#800080;stroke-width:2.25;stroke-miterlimit:4;stroke-dasharray:2.25000006, 2.25000006;stroke-dashoffset:0;stroke-opacity:1"><path
                 d="m 72.59,273.18 5.848,-30.231 23.394,-20.422 11.699,-4.922 17.547,-9.046 29.246,-5.496 29.242,-2.747 58.489,-4.351 116.98,-5 58.488,0.074 58.489,-3.355 116.98,-2.215 58.488,0.914"
                 style="fill:none;stroke:#800080;stroke-width:2.25;stroke-linecap:butt;stroke-linejoin:round;stroke-miterlimit:4;stroke-dasharray:2.25000006, 2.25000006;stroke-dashoffset:0;stroke-opacity:1"
                 id="path452"
                 inkscape:connector-curvature="0" /></g></g></g></g></g><g
       id="g454"
       style="stroke:#008000;stroke-width:2.25;stroke-miterlimit:4;stroke-dasharray:6.75000017, 6.75000017;stroke-dashoffset:0;stroke-opacity:1"><g
         id="g456"
         style="stroke:#008000;stroke-width:2.25;stroke-miterlimit:4;stroke-dasharray:6.75000017, 6.75000017;stroke-dashoffset:0;stroke-opacity:1"><g
           id="g458"
           clip-path="url(#clipPath462)"
           style="stroke:#008000;stroke-width:2.25;stroke-miterlimit:4;stroke-dasharray:6.75000017, 6.75000017;stroke-dashoffset:0;stroke-opacity:1"><g
             id="g464"
             style="stroke:#008000;stroke-width:2.25;stroke-miterlimit:4;stroke-dasharray:6.75000017, 6.75000017;stroke-dashoffset:0;stroke-opacity:1"><g
               id="g466"
               style="stroke:#008000;stroke-width:2.25;stroke-miterlimit:4;stroke-dasharray:6.75000017, 6.75000017;stroke-dashoffset:0;stroke-opacity:1"><path
                 d="m 72.59,279.133 5.848,-8.778 23.394,-19.582 11.699,-4.656 17.547,-5.687 29.246,-8.321 29.242,-1.527 58.489,-7.672 116.98,-7.555 58.488,-0.652 58.489,-1.68 116.98,-4.464 58.488,-1.641"
                 style="fill:none;stroke:#008000;stroke-width:2.25;stroke-linecap:butt;stroke-linejoin:round;stroke-miterlimit:4;stroke-dasharray:6.75000017, 6.75000017;stroke-dashoffset:0;stroke-opacity:1"
                 id="path468"
                 inkscape:connector-curvature="0" /></g></g></g></g></g></g></g><g
   id="g472"><path
     inkscape:connector-curvature="0"
     id="path474"
     style="fill:none;stroke:#f0f0f0;stroke-width:3;stroke-linecap:square;stroke-linejoin:miter;stroke-miterlimit:4;stroke-dasharray:none;stroke-opacity:1"
     d="M 43.344,291.559 V 18.156" /></g><g
   id="g476"><path
     inkscape:connector-curvature="0"
     id="path478"
     style="fill:none;stroke:#f0f0f0;stroke-width:3;stroke-linecap:square;stroke-linejoin:miter;stroke-miterlimit:4;stroke-dasharray:none;stroke-opacity:1"
     d="M 686.723,291.559 V 18.156" /></g><g
   id="g480"><path
     inkscape:connector-curvature="0"
     id="path482"
     style="fill:none;stroke:#f0f0f0;stroke-width:3;stroke-linecap:square;stroke-linejoin:miter;stroke-miterlimit:4;stroke-dasharray:none;stroke-opacity:1"
     d="M 43.344,291.559 H 686.723" /></g><g
   id="g484"><path
     inkscape:connector-curvature="0"
     id="path486"
     style="fill:none;stroke:#f0f0f0;stroke-width:3;stroke-linecap:square;stroke-linejoin:miter;stroke-miterlimit:4;stroke-dasharray:none;stroke-opacity:1"
     d="M 43.344,18.156 H 686.723" /></g><g
   id="g530"
   transform="matrix(0.66603589,0,0,1,212.30204,0)"
   style="stroke-width:1.22532475"><g
     id="g532"
     style="stroke-width:1.22532475" /><g
     id="g546"
     style="stroke-width:1.22532475"><g
       style="opacity:0.8;stroke-width:1.22532475"
       id="g544"
       clip-path="url(#clipPath536)"><g
         id="g542"
         style="stroke-width:1.22532475"><g
           id="g540"
           style="stroke-width:1.22532475"><path
             inkscape:connector-curvature="0"
             id="path538"
             style="fill:#f0f0f0;fill-opacity:1;fill-rule:nonzero;stroke:#cccccc;stroke-width:0.61266237;stroke-linecap:butt;stroke-linejoin:miter;stroke-miterlimit:4;stroke-dasharray:none;stroke-opacity:1"
             d="m 512.855,284.559 h 164.071 c 1.867,0 2.797,-0.934 2.797,-2.801 v -60.246 c 0,-1.867 -0.93,-2.801 -2.797,-2.801 H 512.855 c -1.867,0 -2.8,0.934 -2.8,2.801 v 60.246 c 0,1.867 0.933,2.801 2.8,2.801 z" /></g></g></g></g></g><g
   id="g548"
   transform="matrix(1.3305838,0,0,1,-125.72386,0)"
   style="stroke:#800000;stroke-width:1.95056939;stroke-miterlimit:4;stroke-dasharray:none;stroke-opacity:1"><path
     inkscape:connector-curvature="0"
     id="path550"
     style="fill:none;stroke:#800000;stroke-width:1.95056939;stroke-linecap:butt;stroke-linejoin:round;stroke-miterlimit:4;stroke-dasharray:none;stroke-opacity:1"
     d="m 515.656,230.051 h 28" /></g><g
   id="g570"
   transform="matrix(1.3305838,0,0,1,-125.72386,0)"
   style="stroke:#800080;stroke-width:1.95056939;stroke-miterlimit:4;stroke-dasharray:1.95056944, 1.95056944;stroke-dashoffset:0;stroke-opacity:1"><path
     inkscape:connector-curvature="0"
     id="path572"
     style="fill:none;stroke:#800080;stroke-width:1.95056939;stroke-linecap:butt;stroke-linejoin:round;stroke-miterlimit:4;stroke-dasharray:1.95056944, 1.95056944;stroke-dashoffset:0;stroke-opacity:1"
     d="m 515.656,250.598 h 28" /></g><g
   id="g604"
   transform="matrix(1.3305838,0,0,1,-125.72386,0)"
   style="stroke:#008000;stroke-width:1.95056939;stroke-miterlimit:4;stroke-dasharray:5.85170831, 5.85170831;stroke-dashoffset:0;stroke-opacity:1"><path
     inkscape:connector-curvature="0"
     id="path606"
     style="fill:none;stroke:#008000;stroke-width:1.95056939;stroke-linecap:butt;stroke-linejoin:round;stroke-miterlimit:4;stroke-dasharray:5.85170831, 5.85170831;stroke-dashoffset:0;stroke-opacity:1"
     d="m 515.656,271.148 h 28" /></g><text
   id="text1462"
   y="323.09729"
   x="231.38516"
   style="font-style:normal;font-variant:normal;font-weight:normal;font-stretch:normal;font-size:14.6881628px;line-height:0;font-family:Rubik;-inkscape-font-specification:Rubik;letter-spacing:0px;word-spacing:0px;fill:#000000;fill-opacity:1;stroke:none;stroke-width:0.74999994"
   xml:space="preserve"><tspan
     style="stroke-width:0.74999994"
     y="323.09729"
     x="231.38516"
     id="tspan1460"
     sodipodi:role="line">Amount of labeled data (% of total)</tspan></text>


<text
   id="text1462-5"
   y="235.67287"
   x="604.29181"
   style="font-style:normal;font-variant:normal;font-weight:normal;font-stretch:normal;font-size:14.6881628px;line-height:1.35000002;font-family:Rubik;-inkscape-font-specification:Rubik;letter-spacing:0px;word-spacing:0px;fill:#000000;fill-opacity:1;stroke:none;stroke-width:0.74999994"
   xml:space="preserve"><tspan
     style="stroke-width:0.74999994"
     y="235.67287"
     x="604.29181"
     id="tspan1460-5"
     sodipodi:role="line">MDVAE</tspan><tspan
     style="stroke-width:0.74999994"
     y="255.50189"
     x="604.29181"
     sodipodi:role="line"
     id="tspan1739">V-DSAE</tspan><tspan
     style="stroke-width:0.74999994"
     y="275.3309"
     x="604.29181"
     sodipodi:role="line"
     id="tspan1741">A-DSAE</tspan><tspan
     style="stroke-width:0.74999994"
     y="295.15991"
     x="604.29181"
     sodipodi:role="line"
     id="tspan1737" /><tspan
     style="stroke-width:0.74999994"
     y="314.98895"
     x="604.29181"
     sodipodi:role="line"
     id="tspan1735" /></text>


<text
   id="text1462-4"
   y="13.754921"
   x="-178.9572"
   style="font-style:normal;font-variant:normal;font-weight:normal;font-stretch:normal;font-size:14.6881628px;line-height:0;font-family:Rubik;-inkscape-font-specification:Rubik;letter-spacing:0px;word-spacing:0px;fill:#000000;fill-opacity:1;stroke:none;stroke-width:0.74999994"
   xml:space="preserve"
   transform="rotate(-90)"><tspan
     style="stroke-width:0.74999994"
     y="13.754921"
     x="-178.9572"
     id="tspan1460-7"
     sodipodi:role="line">Accuracy</tspan></text>


</g></svg>