<?xml version="1.0" encoding="UTF-8" standalone="no"?>
<svg
   width="1113.5614pt"
   height="569.47729pt"
   viewBox="0 0 1113.5614 569.47728"
   version="1.1"
   id="svg103"
   sodipodi:docname="results-1.svg"
   inkscape:version="1.3.2 (091e20e, 2023-11-25, custom)"
   xmlns:inkscape="http://www.inkscape.org/namespaces/inkscape"
   xmlns:sodipodi="http://sodipodi.sourceforge.net/DTD/sodipodi-0.dtd"
   xmlns:xlink="http://www.w3.org/1999/xlink"
   xmlns="http://www.w3.org/2000/svg"
   xmlns:svg="http://www.w3.org/2000/svg"
   xmlns:rdf="http://www.w3.org/1999/02/22-rdf-syntax-ns#"
   xmlns:cc="http://creativecommons.org/ns#"
   xmlns:dc="http://purl.org/dc/elements/1.1/">
  <sodipodi:namedview
     id="namedview103"
     pagecolor="#ffffff"
     bordercolor="#666666"
     borderopacity="1.0"
     inkscape:showpageshadow="2"
     inkscape:pageopacity="0.0"
     inkscape:pagecheckerboard="0"
     inkscape:deskcolor="#d1d1d1"
     inkscape:document-units="pt"
     inkscape:zoom="0.56911891"
     inkscape:cx="663.30602"
     inkscape:cy="344.392"
     inkscape:window-width="1920"
     inkscape:window-height="991"
     inkscape:window-x="-9"
     inkscape:window-y="-9"
     inkscape:window-maximized="1"
     inkscape:current-layer="matplotlib.axis_2" />
  <metadata
     id="metadata1">
    <rdf:RDF>
      <cc:Work>
        <dc:type
           rdf:resource="http://purl.org/dc/dcmitype/StillImage" />
        <dc:date>2024-03-01T12:40:33.740623</dc:date>
        <dc:format>image/svg+xml</dc:format>
        <dc:creator>
          <cc:Agent>
            <dc:title>Matplotlib v3.8.2, https://matplotlib.org/</dc:title>
          </cc:Agent>
        </dc:creator>
      </cc:Work>
    </rdf:RDF>
  </metadata>
  <defs
     id="defs1">
    <style
       type="text/css"
       id="style1">*{stroke-linejoin: round; stroke-linecap: butt}</style>
  </defs>
  <g
     id="figure_1"
     transform="translate(-145.39844,-81.0752)">
    <g
       id="patch_1" />
    <g
       id="axes_1">
      <g
         id="patch_2">
        <path
           d="M 172.8,604.2744 H 1244.16 V 81.4752 H 172.8 Z"
           style="fill:#ffffff"
           id="path2" />
      </g>
      <g
         id="matplotlib.axis_1">
        <g
           id="xtick_1">
          <g
             id="text_1">
            <!-- 0 -->
            <g
               style="fill:#262626"
               transform="matrix(0.16,0,0,-0.16,168.35125,622.7269)"
               id="g2">
              <defs
                 id="defs2">
                <path
                   id="ArialMT-30"
                   d="m 266,2259 q 0,813 167,1308 167,496 496,764 330,269 830,269 369,0 647,-149 278,-148 459,-428 182,-279 285,-681 103,-401 103,-1083 0,-806 -166,-1301 Q 2922,463 2592,192 2263,-78 1759,-78 1097,-78 719,397 266,969 266,2259 Z m 578,0 q 0,-1128 264,-1502 264,-373 651,-373 388,0 652,375 264,375 264,1500 0,1132 -264,1503 -264,372 -658,372 -387,0 -619,-328 Q 844,3388 844,2259 Z"
                   transform="scale(0.015625)" />
              </defs>
              <use
                 xlink:href="#ArialMT-30"
                 id="use2" />
            </g>
          </g>
        </g>
        <g
           id="xtick_2">
          <g
             id="text_2">
            <!-- 20 -->
            <g
               style="fill:#262626"
               transform="matrix(0.16,0,0,-0.16,378.1745,622.7269)"
               id="g4">
              <defs
                 id="defs3">
                <path
                   id="ArialMT-32"
                   d="M 3222,541 V 0 H 194 q -6,203 65,391 116,309 370,609 255,300 737,694 747,612 1009,970 263,358 263,677 0,334 -240,563 -239,230 -623,230 -406,0 -650,-244 -244,-243 -247,-674 l -578,59 q 59,647 446,986 388,339 1042,339 659,0 1043,-366 385,-365 385,-906 0,-275 -113,-541 Q 2991,2522 2730,2228 2469,1934 1863,1422 1356,997 1212,845 1069,694 975,541 Z"
                   transform="scale(0.015625)" />
              </defs>
              <use
                 xlink:href="#ArialMT-32"
                 id="use3" />
              <use
                 xlink:href="#ArialMT-30"
                 x="55.615234"
                 id="use4" />
            </g>
          </g>
        </g>
        <g
           id="xtick_3">
          <g
             id="text_3">
            <!-- 40 -->
            <g
               style="fill:#262626"
               transform="matrix(0.16,0,0,-0.16,592.4465,622.7269)"
               id="g6">
              <defs
                 id="defs4">
                <path
                   id="ArialMT-34"
                   d="M 2069,0 V 1097 H 81 v 516 l 2091,2968 h 459 V 1613 h 619 V 1097 H 2631 V 0 Z m 0,1613 V 3678 L 634,1613 Z"
                   transform="scale(0.015625)" />
              </defs>
              <use
                 xlink:href="#ArialMT-34"
                 id="use5" />
              <use
                 xlink:href="#ArialMT-30"
                 x="55.615234"
                 id="use6" />
            </g>
          </g>
        </g>
        <g
           id="xtick_4">
          <g
             id="text_4">
            <!-- 60 -->
            <g
               style="fill:#262626"
               transform="matrix(0.16,0,0,-0.16,806.7185,622.7269)"
               id="g8">
              <defs
                 id="defs6">
                <path
                   id="ArialMT-36"
                   d="m 3184,3459 -559,-43 q -75,331 -212,481 -229,241 -563,241 -269,0 -472,-150 -265,-194 -419,-566 -153,-372 -159,-1059 203,309 497,459 294,150 616,150 562,0 957,-414 396,-414 396,-1070 0,-432 -186,-802 Q 2894,316 2569,119 2244,-78 1831,-78 1128,-78 684,439 241,956 241,2144 q 0,1328 490,1931 428,525 1153,525 541,0 886,-303 346,-303 414,-838 z M 888,1484 q 0,-290 123,-556 123,-265 345,-405 222,-139 466,-139 356,0 612,287 257,288 257,782 0,475 -254,748 -253,274 -637,274 -381,0 -647,-274 -265,-273 -265,-717 z"
                   transform="scale(0.015625)" />
              </defs>
              <use
                 xlink:href="#ArialMT-36"
                 id="use7" />
              <use
                 xlink:href="#ArialMT-30"
                 x="55.615234"
                 id="use8" />
            </g>
          </g>
        </g>
        <g
           id="xtick_5">
          <g
             id="text_5">
            <!-- 80 -->
            <g
               style="fill:#262626"
               transform="matrix(0.16,0,0,-0.16,1020.9905,622.7269)"
               id="g10">
              <defs
                 id="defs8">
                <path
                   id="ArialMT-38"
                   d="m 1131,2484 q -350,129 -519,366 -168,238 -168,569 0,500 359,840 360,341 956,341 600,0 966,-349 366,-348 366,-848 0,-319 -168,-555 -167,-235 -507,-364 422,-137 642,-444 220,-306 220,-731 0,-587 -416,-987 Q 2447,-78 1769,-78 1091,-78 675,323 259,725 259,1325 q 0,447 227,748 227,302 645,411 z m -112,954 q 0,-325 209,-532 210,-206 544,-206 325,0 533,204 208,205 208,502 0,310 -215,521 -214,211 -532,211 -322,0 -535,-207 -212,-206 -212,-493 z M 838,1322 q 0,-241 114,-466 114,-225 339,-349 225,-123 484,-123 403,0 665,259 263,260 263,660 0,406 -270,672 -270,266 -677,266 -397,0 -658,-263 -260,-262 -260,-656 z"
                   transform="scale(0.015625)" />
              </defs>
              <use
                 xlink:href="#ArialMT-38"
                 id="use9" />
              <use
                 xlink:href="#ArialMT-30"
                 x="55.615234"
                 id="use10" />
            </g>
          </g>
        </g>
        <g
           id="xtick_6">
          <g
             id="text_6">
            <!-- 100 -->
            <g
               style="fill:#262626"
               transform="matrix(0.16,0,0,-0.16,1230.8138,622.7269)"
               id="g13">
              <defs
                 id="defs10">
                <path
                   id="ArialMT-31"
                   d="M 2384,0 H 1822 V 3584 Q 1619,3391 1289,3197 959,3003 697,2906 v 544 q 472,222 825,537 353,316 500,613 h 362 z"
                   transform="scale(0.015625)" />
              </defs>
              <use
                 xlink:href="#ArialMT-31"
                 id="use11" />
              <use
                 xlink:href="#ArialMT-30"
                 x="55.615234"
                 id="use12" />
              <use
                 xlink:href="#ArialMT-30"
                 x="111.23047"
                 id="use13" />
            </g>
          </g>
        </g>
        <g
           id="text_7">
          <!-- Accuracy (%) -->
          <g
             style="fill:#262626"
             transform="matrix(0.22,0,0,-0.22,643.08328,645.92221)"
             id="g25">
            <defs
               id="defs13">
              <path
                 id="ArialMT-41"
                 d="m -9,0 1759,4581 h 653 L 4278,0 H 3588 L 3053,1388 H 1138 L 634,0 Z m 1322,1881 h 1553 l -478,1269 q -219,578 -325,950 -88,-441 -247,-875 z"
                 transform="scale(0.015625)" />
              <path
                 id="ArialMT-63"
                 d="m 2588,1216 553,-72 Q 3050,572 2676,248 2303,-75 1759,-75 1078,-75 664,370 250,816 250,1647 q 0,537 178,940 178,404 542,605 364,202 793,202 540,0 884,-274 344,-273 441,-776 l -547,-85 q -78,335 -277,503 -198,169 -480,169 -425,0 -691,-305 -265,-304 -265,-963 0,-669 256,-972 257,-303 669,-303 331,0 553,203 222,203 282,625 z"
                 transform="scale(0.015625)" />
              <path
                 id="ArialMT-75"
                 d="M 2597,0 V 488 Q 2209,-75 1544,-75 1250,-75 995,37 741,150 617,320 494,491 444,738 409,903 409,1263 V 3319 H 972 V 1478 q 0,-440 34,-594 53,-221 225,-348 172,-127 425,-127 253,0 475,130 222,130 314,353 93,224 93,649 v 1778 h 562 V 0 Z"
                 transform="scale(0.015625)" />
              <path
                 id="ArialMT-72"
                 d="m 416,0 v 3319 h 506 v -503 q 194,353 358,465 164,113 361,113 284,0 578,-181 l -194,-522 q -206,122 -412,122 -185,0 -332,-111 -147,-111 -209,-308 -94,-300 -94,-656 V 0 Z"
                 transform="scale(0.015625)" />
              <path
                 id="ArialMT-61"
                 d="M 2588,409 Q 2275,144 1986,34 1697,-75 1366,-75 819,-75 525,192 231,459 231,875 q 0,244 111,445 111,202 291,324 180,122 405,184 165,44 500,85 681,81 1003,193 3,116 3,147 0,344 -160,485 -215,190 -640,190 -397,0 -586,-139 -189,-139 -280,-492 l -550,75 q 75,353 247,570 172,217 497,334 325,118 753,118 425,0 690,-100 266,-100 391,-252 125,-151 175,-383 28,-143 28,-518 v -750 q 0,-785 36,-993 36,-207 143,-398 h -588 q -87,175 -112,409 z m -47,1257 q -307,-125 -919,-213 -347,-50 -491,-113 -143,-62 -222,-182 -78,-120 -78,-267 0,-225 170,-375 171,-150 499,-150 325,0 578,142 253,142 372,389 91,191 91,562 z"
                 transform="scale(0.015625)" />
              <path
                 id="ArialMT-79"
                 d="m 397,-1278 -63,528 q 185,-50 322,-50 188,0 300,63 113,62 185,174 53,85 172,419 15,47 50,138 L 103,3319 h 606 l 691,-1922 q 134,-366 241,-769 97,388 231,756 l 709,1935 h 563 L 1881,-56 q -203,-547 -315,-753 -150,-279 -344,-408 -194,-130 -463,-130 -162,0 -362,69 z"
                 transform="scale(0.015625)" />
              <path
                 id="ArialMT-20"
                 transform="scale(0.015625)"
                 d="" />
              <path
                 id="ArialMT-28"
                 d="M 1497,-1347 Q 1031,-759 709,28 388,816 388,1659 q 0,744 240,1425 281,791 869,1575 h 403 Q 1522,4009 1400,3731 1209,3300 1100,2831 966,2247 966,1656 966,153 1900,-1347 Z"
                 transform="scale(0.015625)" />
              <path
                 id="ArialMT-25"
                 d="m 372,3481 q 0,491 247,834 247,344 715,344 432,0 714,-308 283,-307 283,-904 0,-581 -286,-895 -286,-314 -704,-314 -416,0 -693,309 -276,309 -276,934 z m 978,791 q -209,0 -348,-182 -139,-181 -139,-665 0,-441 140,-621 141,-179 347,-179 213,0 352,181 139,182 139,663 0,444 -141,623 -141,180 -350,180 z m 3,-4441 2506,4828 h 457 L 1819,-169 Z m 1981,1244 q 0,494 247,836 247,342 719,342 431,0 714,-308 283,-307 283,-904 0,-582 -286,-896 -286,-314 -708,-314 -415,0 -692,311 -277,311 -277,933 z m 982,791 q -213,0 -352,-182 -139,-181 -139,-665 0,-438 140,-619 141,-181 348,-181 215,0 354,181 139,181 139,663 0,443 -141,623 -140,180 -349,180 z"
                 transform="scale(0.015625)" />
              <path
                 id="ArialMT-29"
                 d="M 791,-1347 H 388 q 934,1500 934,3003 0,588 -134,1166 -107,469 -297,900 -122,281 -503,937 h 403 q 587,-784 868,-1575 241,-681 241,-1425 0,-843 -324,-1631 -323,-787 -785,-1375 z"
                 transform="scale(0.015625)" />
            </defs>
            <use
               xlink:href="#ArialMT-41"
               id="use14" />
            <use
               xlink:href="#ArialMT-63"
               x="66.699219"
               id="use15" />
            <use
               xlink:href="#ArialMT-63"
               x="116.69922"
               id="use16" />
            <use
               xlink:href="#ArialMT-75"
               x="166.69922"
               id="use17" />
            <use
               xlink:href="#ArialMT-72"
               x="222.31445"
               id="use18" />
            <use
               xlink:href="#ArialMT-61"
               x="255.61523"
               id="use19" />
            <use
               xlink:href="#ArialMT-63"
               x="311.23047"
               id="use20" />
            <use
               xlink:href="#ArialMT-79"
               x="361.23047"
               id="use21" />
            <use
               xlink:href="#ArialMT-20"
               x="411.23047"
               id="use22" />
            <use
               xlink:href="#ArialMT-28"
               x="439.01367"
               id="use23" />
            <use
               xlink:href="#ArialMT-25"
               x="472.31445"
               id="use24" />
            <use
               xlink:href="#ArialMT-29"
               x="561.23047"
               id="use25" />
          </g>
        </g>
      </g>
      <g
         id="matplotlib.axis_2">
        <g
           id="ytick_1"
           transform="translate(0,-33)">
          <g
             id="text_8">
            <!-- A-DSAE -->
            <g
               style="fill:#262626"
               transform="matrix(0,-0.22,-0.22,0,161.4275,220.86369)"
               id="g31">
              <defs
                 id="defs25">
                <path
                   id="ArialMT-2d"
                   d="m 203,1375 v 566 h 1728 v -566 z"
                   transform="scale(0.015625)" />
                <path
                   id="ArialMT-44"
                   d="m 494,0 v 4581 h 1578 q 534,0 816,-65 393,-91 671,-328 363,-307 542,-784 180,-476 180,-1088 0,-522 -122,-925 Q 4038,988 3847,723 3656,459 3429,307 3203,156 2883,78 2563,0 2147,0 Z m 606,541 h 978 q 453,0 711,84 258,84 411,238 216,215 336,579 120,364 120,883 0,719 -236,1105 -236,386 -573,517 -244,94 -784,94 h -963 z"
                   transform="scale(0.015625)" />
                <path
                   id="ArialMT-53"
                   d="m 288,1472 571,50 q 41,-344 189,-564 149,-220 461,-356 313,-136 704,-136 346,0 612,103 266,103 395,282 130,180 130,393 0,215 -125,376 -125,161 -412,271 -185,72 -816,223 -631,152 -884,286 -329,172 -490,426 -160,255 -160,571 0,347 196,648 197,302 575,458 379,156 841,156 509,0 898,-164 390,-164 599,-483 209,-318 225,-721 l -581,-44 q -47,434 -318,656 -270,222 -798,222 -550,0 -802,-202 -251,-201 -251,-485 0,-247 178,-407 175,-159 914,-326 739,-167 1014,-292 400,-185 590,-468 191,-282 191,-651 0,-366 -209,-690 Q 3516,281 3123,101 2731,-78 2241,-78 1619,-78 1198,103 778,284 539,648 300,1013 288,1472 Z"
                   transform="scale(0.015625)" />
                <path
                   id="ArialMT-45"
                   d="M 506,0 V 4581 H 3819 V 4041 H 1113 V 2638 H 3647 V 2100 H 1113 V 541 H 3925 V 0 Z"
                   transform="scale(0.015625)" />
              </defs>
              <use
                 xlink:href="#ArialMT-41"
                 id="use26" />
              <use
                 xlink:href="#ArialMT-2d"
                 x="66.699219"
                 id="use27" />
              <use
                 xlink:href="#ArialMT-44"
                 x="100"
                 id="use28" />
              <use
                 xlink:href="#ArialMT-53"
                 x="172.2168"
                 id="use29" />
              <use
                 xlink:href="#ArialMT-41"
                 x="238.91602"
                 id="use30" />
              <use
                 xlink:href="#ArialMT-45"
                 x="305.61523"
                 id="use31" />
            </g>
          </g>
        </g>
        <g
           id="ytick_2"
           transform="translate(0,-33)">
          <g
             id="text_9">
            <!-- V-DSAE  -->
            <g
               style="fill:#262626"
               transform="matrix(0,-0.22,-0.22,0,161.4275,356.46537)"
               id="g38">
              <defs
                 id="defs31">
                <path
                   id="ArialMT-56"
                   d="M 1803,0 28,4581 H 684 L 1875,1253 q 144,-400 241,-750 106,375 247,750 l 1237,3328 h 619 L 2425,0 Z"
                   transform="scale(0.015625)" />
              </defs>
              <use
                 xlink:href="#ArialMT-56"
                 id="use32" />
              <use
                 xlink:href="#ArialMT-2d"
                 x="61.199219"
                 id="use33" />
              <use
                 xlink:href="#ArialMT-44"
                 x="94.5"
                 id="use34" />
              <use
                 xlink:href="#ArialMT-53"
                 x="166.7168"
                 id="use35" />
              <use
                 xlink:href="#ArialMT-41"
                 x="233.41602"
                 id="use36" />
              <use
                 xlink:href="#ArialMT-45"
                 x="300.11523"
                 id="use37" />
              <use
                 xlink:href="#ArialMT-20"
                 x="366.81445"
                 id="use38" />
            </g>
          </g>
        </g>
        <g
           id="ytick_3"
           transform="translate(0,-33)">
          <g
             id="text_10">
            <!-- wav2vec -->
            <g
               style="fill:#262626"
               transform="matrix(0,-0.22,-0.22,0,161.4275,485.94142)"
               id="g45">
              <defs
                 id="defs38">
                <path
                   id="ArialMT-77"
                   d="M 1034,0 19,3319 h 581 l 528,-1916 197,-712 q 13,53 172,684 l 528,1944 h 578 l 497,-1925 166,-635 190,641 569,1919 h 547 L 3534,0 H 2950 L 2422,1988 2294,2553 1622,0 Z"
                   transform="scale(0.015625)" />
                <path
                   id="ArialMT-76"
                   d="M 1344,0 81,3319 h 594 l 713,-1988 q 115,-322 212,-668 75,262 209,631 l 738,2025 h 578 L 1869,0 Z"
                   transform="scale(0.015625)" />
                <path
                   id="ArialMT-65"
                   d="m 2694,1069 581,-72 Q 3138,488 2766,206 2394,-75 1816,-75 1088,-75 661,373 234,822 234,1631 q 0,838 431,1300 432,463 1119,463 666,0 1088,-453 422,-453 422,-1275 0,-50 -3,-150 H 816 q 31,-547 309,-838 278,-290 694,-290 309,0 528,162 219,163 347,519 z M 847,1978 h 1853 q -37,419 -212,628 -269,325 -697,325 -388,0 -652,-259 -264,-259 -292,-694 z"
                   transform="scale(0.015625)" />
              </defs>
              <use
                 xlink:href="#ArialMT-77"
                 id="use39" />
              <use
                 xlink:href="#ArialMT-61"
                 x="72.216797"
                 id="use40" />
              <use
                 xlink:href="#ArialMT-76"
                 x="127.83203"
                 id="use41" />
              <use
                 xlink:href="#ArialMT-32"
                 x="177.83203"
                 id="use42" />
              <use
                 xlink:href="#ArialMT-76"
                 x="233.44727"
                 id="use43" />
              <use
                 xlink:href="#ArialMT-65"
                 x="283.44727"
                 id="use44" />
              <use
                 xlink:href="#ArialMT-63"
                 x="339.0625"
                 id="use45" />
            </g>
          </g>
        </g>
        <g
           id="ytick_4"
           transform="translate(0,-48)">
          <g
             id="text_11">
            <!-- VQ-MDVAE -->
            <g
               style="fill:#262626"
               transform="matrix(0,-0.22,-0.22,0,161.4275,646.77778)"
               id="g53">
              <defs
                 id="defs45">
                <path
                   id="ArialMT-51"
                   d="M 3966,491 Q 4388,200 4744,66 L 4566,-356 Q 4072,-178 3581,206 3072,-78 2456,-78 1834,-78 1328,222 822,522 548,1065 275,1609 275,2291 q 0,678 275,1234 275,556 783,847 508,291 1136,291 634,0 1143,-302 510,-302 777,-844 267,-542 267,-1223 0,-566 -172,-1018 -171,-451 -518,-785 z m -1335,775 q 525,-147 866,-438 534,488 534,1466 0,556 -189,971 -189,416 -553,646 -364,230 -817,230 -678,0 -1125,-464 -447,-464 -447,-1386 0,-894 442,-1372 442,-478 1130,-478 325,0 612,122 -284,184 -600,262 z"
                   transform="scale(0.015625)" />
                <path
                   id="ArialMT-4d"
                   d="m 475,0 v 4581 h 913 L 2472,1338 q 150,-454 219,-679 78,250 243,735 l 1097,3187 h 816 V 0 H 4263 V 3834 L 2931,0 H 2384 L 1059,3900 V 0 Z"
                   transform="scale(0.015625)" />
              </defs>
              <use
                 xlink:href="#ArialMT-56"
                 id="use46" />
              <use
                 xlink:href="#ArialMT-51"
                 x="66.699219"
                 id="use47" />
              <use
                 xlink:href="#ArialMT-2d"
                 x="144.48242"
                 id="use48" />
              <use
                 xlink:href="#ArialMT-4d"
                 x="177.7832"
                 id="use49" />
              <use
                 xlink:href="#ArialMT-44"
                 x="261.08398"
                 id="use50" />
              <use
                 xlink:href="#ArialMT-56"
                 x="333.30078"
                 id="use51" />
              <use
                 xlink:href="#ArialMT-41"
                 x="392.625"
                 id="use52" />
              <use
                 xlink:href="#ArialMT-45"
                 x="459.32422"
                 id="use53" />
            </g>
          </g>
        </g>
      </g>
      <g
         id="patch_3">
        <path
           d="M 172.8,94.54518 H 605.62944 V 199.10502 H 172.8 Z"
           clip-path="url(#p6baf01d2a3)"
           style="fill:#abc9ea;stroke:#ffffff;stroke-linejoin:miter"
           id="path60" />
      </g>
      <g
         id="patch_4">
        <path
           d="M 172.8,225.24498 H 714.90816 V 329.80482 H 172.8 Z"
           clip-path="url(#p6baf01d2a3)"
           style="fill:#abc9ea;stroke:#ffffff;stroke-linejoin:miter"
           id="path61" />
      </g>
      <g
         id="patch_5">
        <path
           d="M 172.8,355.94478 H 989.17632 V 460.50462 H 172.8 Z"
           clip-path="url(#p6baf01d2a3)"
           style="fill:#abc9ea;stroke:#ffffff;stroke-linejoin:miter"
           id="path62" />
      </g>
      <g
         id="patch_6">
        <path
           d="M 172.8,486.64458 H 1224.8755 V 591.20442 H 172.8 Z"
           clip-path="url(#p6baf01d2a3)"
           style="fill:#abc9ea;stroke:#ffffff;stroke-linejoin:miter"
           id="path63" />
      </g>
      <g
         id="line2d_1">
        <path
           clip-path="url(#p6baf01d2a3)"
           style="fill:none;stroke:#424242;stroke-width:2.25;stroke-linecap:round"
           id="path64"
           d="" />
      </g>
      <g
         id="line2d_2">
        <path
           clip-path="url(#p6baf01d2a3)"
           style="fill:none;stroke:#424242;stroke-width:2.25;stroke-linecap:round"
           id="path65"
           d="" />
      </g>
      <g
         id="line2d_3">
        <path
           clip-path="url(#p6baf01d2a3)"
           style="fill:none;stroke:#424242;stroke-width:2.25;stroke-linecap:round"
           id="path66"
           d="" />
      </g>
      <g
         id="line2d_4">
        <path
           clip-path="url(#p6baf01d2a3)"
           style="fill:none;stroke:#424242;stroke-width:2.25;stroke-linecap:round"
           id="path67"
           d="" />
      </g>
      <g
         id="patch_7">
        <path
           d="M 172.8,604.2744 V 81.4752"
           style="fill:none;stroke:#262626;stroke-width:0.8;stroke-linecap:square;stroke-linejoin:miter"
           id="path68" />
      </g>
      <g
         id="patch_8">
        <path
           d="M 1244.16,604.2744 V 81.4752"
           style="fill:none;stroke:#262626;stroke-width:0.8;stroke-linecap:square;stroke-linejoin:miter"
           id="path69" />
      </g>
      <g
         id="patch_9">
        <path
           d="M 172.8,604.2744 H 1244.16"
           style="fill:none;stroke:#262626;stroke-width:0.8;stroke-linecap:square;stroke-linejoin:miter"
           id="path70" />
      </g>
      <g
         id="patch_10">
        <path
           d="M 172.8,81.4752 H 1244.16"
           style="fill:none;stroke:#262626;stroke-width:0.8;stroke-linecap:square;stroke-linejoin:miter"
           id="path71" />
      </g>
      <g
         id="text_13">
        <!-- 40.4 -->
        <g
           style="fill:#262626"
           transform="matrix(0.18,0,0,-0.18,605.62944,151.47838)"
           id="g74">
          <defs
             id="defs71">
            <path
               id="ArialMT-2e"
               d="m 581,0 v 641 h 641 V 0 Z"
               transform="scale(0.015625)" />
          </defs>
          <use
             xlink:href="#ArialMT-34"
             id="use71" />
          <use
             xlink:href="#ArialMT-30"
             x="55.615234"
             id="use72" />
          <use
             xlink:href="#ArialMT-2e"
             x="111.23047"
             id="use73" />
          <use
             xlink:href="#ArialMT-34"
             x="139.01367"
             id="use74" />
        </g>
      </g>
      <g
         id="text_14">
        <!-- 50.6 -->
        <g
           style="fill:#262626"
           transform="matrix(0.18,0,0,-0.18,714.90816,282.17818)"
           id="g78">
          <defs
             id="defs74">
            <path
               id="ArialMT-35"
               d="m 266,1200 590,50 q 66,-431 305,-649 239,-217 577,-217 406,0 687,306 281,307 281,813 0,481 -270,759 -270,279 -708,279 -272,0 -491,-124 -218,-123 -343,-320 l -528,69 443,2353 H 3088 V 3981 H 1259 L 1013,2750 q 412,288 865,288 600,0 1012,-416 413,-416 413,-1069 Q 3303,931 2941,478 2500,-78 1738,-78 1113,-78 717,272 322,622 266,1200 Z"
               transform="scale(0.015625)" />
          </defs>
          <use
             xlink:href="#ArialMT-35"
             id="use75" />
          <use
             xlink:href="#ArialMT-30"
             x="55.615234"
             id="use76" />
          <use
             xlink:href="#ArialMT-2e"
             x="111.23047"
             id="use77" />
          <use
             xlink:href="#ArialMT-36"
             x="139.01367"
             id="use78" />
        </g>
      </g>
      <g
         id="text_15">
        <!-- 76.2 -->
        <g
           style="fill:#262626"
           transform="matrix(0.18,0,0,-0.18,989.17632,412.87798)"
           id="g82">
          <defs
             id="defs78">
            <path
               id="ArialMT-37"
               d="m 303,3981 v 541 H 3269 V 4084 Q 2831,3619 2401,2847 1972,2075 1738,1259 1569,684 1522,0 H 944 q 9,541 212,1306 203,766 583,1477 380,711 808,1198 z"
               transform="scale(0.015625)" />
          </defs>
          <use
             xlink:href="#ArialMT-37"
             id="use79" />
          <use
             xlink:href="#ArialMT-36"
             x="55.615234"
             id="use80" />
          <use
             xlink:href="#ArialMT-2e"
             x="111.23047"
             id="use81" />
          <use
             xlink:href="#ArialMT-32"
             x="139.01367"
             id="use82" />
        </g>
      </g>
      <g
         id="text_16">
        <!-- 98.2 -->
        <g
           style="fill:#262626"
           transform="matrix(0.18,0,0,-0.18,1224.8755,543.57778)"
           id="g86">
          <defs
             id="defs82">
            <path
               id="ArialMT-39"
               d="m 350,1059 541,50 q 68,-381 262,-553 194,-172 497,-172 259,0 454,119 196,119 321,317 125,199 209,536 85,338 85,688 0,37 -3,112 -169,-268 -461,-436 -292,-167 -633,-167 -569,0 -963,412 -393,413 -393,1088 0,697 411,1122 411,425 1029,425 447,0 817,-241 371,-240 563,-686 192,-445 192,-1289 0,-878 -191,-1398 Q 2897,466 2520,194 2144,-78 1638,-78 1100,-78 759,220 419,519 350,1059 Z m 2303,2022 q 0,485 -258,769 -257,284 -620,284 -375,0 -653,-306 -278,-306 -278,-794 0,-437 264,-711 264,-273 651,-273 391,0 642,273 252,274 252,758 z"
               transform="scale(0.015625)" />
          </defs>
          <use
             xlink:href="#ArialMT-39"
             id="use83" />
          <use
             xlink:href="#ArialMT-38"
             x="55.615234"
             id="use84" />
          <use
             xlink:href="#ArialMT-2e"
             x="111.23047"
             id="use85" />
          <use
             xlink:href="#ArialMT-32"
             x="139.01367"
             id="use86" />
        </g>
      </g>
      <g
         id="legend_1">
        <g
           id="patch_11">
          <path
             d="m 1042.1,117.1027 h 190.86 q 3.2,0 3.2,-3.2 V 92.6752 q 0,-3.2 -3.2,-3.2 H 1042.1 q -3.2,0 -3.2,3.2 v 21.2275 q 0,3.2 3.2,3.2 z"
             style="opacity:0.8;fill:#ffffff;stroke:#cccccc;stroke-linejoin:miter"
             id="path86" />
        </g>
        <g
           id="patch_12">
          <path
             d="m 1045.3,107.5227 h 32 v -11.2 h -32 z"
             style="fill:#abc9ea;stroke:#ffffff;stroke-linejoin:miter"
             id="path87" />
        </g>
        <g
           id="text_17">
          <!-- Speaker dependent -->
          <g
             style="fill:#262626"
             transform="matrix(0.16,0,0,-0.16,1090.1,107.5227)"
             id="g103">
            <defs
               id="defs87">
              <path
                 id="ArialMT-70"
                 d="m 422,-1272 v 4591 h 512 v -431 q 182,253 410,379 228,127 553,127 425,0 750,-219 325,-219 490,-618 166,-398 166,-873 0,-509 -183,-917 Q 2938,359 2589,142 2241,-75 1856,-75 1575,-75 1351,44 1128,163 984,344 v -1616 z m 509,2913 q 0,-641 259,-947 260,-306 629,-306 375,0 642,317 267,317 267,983 0,634 -261,949 -261,316 -623,316 -360,0 -637,-336 -276,-336 -276,-976 z"
                 transform="scale(0.015625)" />
              <path
                 id="ArialMT-6b"
                 d="M 425,0 V 4581 H 988 V 1969 l 1331,1350 h 728 L 1778,2088 3175,0 H 2481 L 1384,1697 988,1316 V 0 Z"
                 transform="scale(0.015625)" />
              <path
                 id="ArialMT-6e"
                 d="m 422,0 v 3319 h 506 v -472 q 366,547 1056,547 300,0 552,-108 252,-108 377,-283 125,-175 175,-415 31,-157 31,-547 V 0 h -563 v 2019 q 0,344 -66,514 -65,170 -232,271 -167,102 -392,102 -360,0 -621,-228 Q 984,2450 984,1813 V 0 Z"
                 transform="scale(0.015625)" />
            </defs>
            <use
               xlink:href="#ArialMT-53"
               id="use87" />
            <use
               xlink:href="#ArialMT-70"
               x="66.699219"
               id="use88" />
            <use
               xlink:href="#ArialMT-65"
               x="122.31445"
               id="use89" />
            <use
               xlink:href="#ArialMT-61"
               x="177.92969"
               id="use90" />
            <use
               xlink:href="#ArialMT-6b"
               x="233.54492"
               id="use91" />
            <use
               xlink:href="#ArialMT-65"
               x="283.54492"
               id="use92" />
            <use
               xlink:href="#ArialMT-72"
               x="339.16016"
               id="use93" />
            <use
               xlink:href="#ArialMT-20"
               x="372.46094"
               id="use94" />
            <path
               id="use95"
               d="m 440.47852,0 v 6.546875 q -4.9375,-7.71875 -14.5,-7.71875 -6.20313,0 -11.40625,3.421875 -5.20313,3.421875 -8.0625,9.546875 -2.84375,6.125 -2.84375,14.078125 0,7.765625 2.57812,14.09375 2.59375,6.328125 7.76563,9.6875 5.1875,3.375 11.57812,3.375 4.6875,0 8.34375,-1.984375 3.67188,-1.96875 5.96875,-5.140625 v 25.671875 h 8.73438 V 0 Z m -27.78125,25.875 q 0,-9.953125 4.1875,-14.890625 4.20312,-4.921875 9.92187,-4.921875 5.76563,0 9.78125,4.703125 4.03125,4.71875 4.03125,14.375 0,10.65625 -4.10937,15.625 Q 432.41602,45.75 426.41602,45.75 q -5.85938,0 -9.79688,-4.78125 -3.92187,-4.78125 -3.92187,-15.09375 z"
               style="stroke-width:0.015625" />
            <use
               xlink:href="#ArialMT-65"
               x="455.85938"
               id="use96" />
            <use
               xlink:href="#ArialMT-70"
               x="511.47461"
               id="use97" />
            <use
               xlink:href="#ArialMT-65"
               x="567.08984"
               id="use98" />
            <use
               xlink:href="#ArialMT-6e"
               x="622.70508"
               id="use99" />
            <path
               id="use100"
               d="m 718.55469,0 v 6.546875 q -4.9375,-7.71875 -14.5,-7.71875 -6.20313,0 -11.40625,3.421875 -5.20313,3.421875 -8.0625,9.546875 -2.84375,6.125 -2.84375,14.078125 0,7.765625 2.57812,14.09375 2.59375,6.328125 7.76563,9.6875 5.1875,3.375 11.57812,3.375 4.6875,0 8.34375,-1.984375 3.67188,-1.96875 5.96875,-5.140625 v 25.671875 h 8.73438 V 0 Z m -27.78125,25.875 q 0,-9.953125 4.1875,-14.890625 4.20312,-4.921875 9.92187,-4.921875 5.76563,0 9.78125,4.703125 4.03125,4.71875 4.03125,14.375 0,10.65625 -4.10937,15.625 Q 710.49219,45.75 704.49219,45.75 q -5.85938,0 -9.79688,-4.78125 -3.92187,-4.78125 -3.92187,-15.09375 z"
               style="stroke-width:0.015625" />
            <use
               xlink:href="#ArialMT-65"
               x="733.93555"
               id="use101" />
            <use
               xlink:href="#ArialMT-6e"
               x="789.55078"
               id="use102" />
            <path
               id="use103"
               d="m 870.94727,7.859375 1.26562,-7.765625 q -3.70312,-0.78125 -6.64062,-0.78125 -4.78125,0 -7.42188,1.515625 -2.625,1.515625 -3.70312,3.984375 -1.07813,2.46875 -1.07813,10.375 v 29.828125 h -6.4375 v 6.84375 h 6.4375 v 12.84375 l 8.73438,5.265625 V 51.859375 h 8.84375 v -6.84375 h -8.84375 v -30.3125 q 0,-3.765625 0.46875,-4.84375 0.46875,-1.0625 1.51562,-1.703125 1.04688,-0.640625 3,-0.640625 1.46875,0 3.85938,0.34375 z"
               style="stroke-width:0.015625" />
          </g>
        </g>
      </g>
    </g>
  </g>
  <defs
     id="defs103">
    <clipPath
       id="p6baf01d2a3">
      <rect
         x="172.8"
         y="81.475197"
         width="1071.36"
         height="522.79919"
         id="rect103" />
    </clipPath>
  </defs>
</svg>
